<?xml version="1.0" encoding="utf-8"?>
<!-- Generator: Adobe Illustrator 24.3.0, SVG Export Plug-In . SVG Version: 6.00 Build 0)  -->
<svg version="1.1" id="Слой_1" xmlns="http://www.w3.org/2000/svg" xmlns:xlink="http://www.w3.org/1999/xlink" x="0px" y="0px"
	 viewBox="0 0 796 414.2" style="enable-background:new 0 0 796 414.2;" xml:space="preserve">
<style type="text/css">
	.st0{fill-rule:evenodd;clip-rule:evenodd;fill:#F5F72D;}
	.st1{fill-rule:evenodd;clip-rule:evenodd;fill:#F05356;}
	.st2{fill-rule:evenodd;clip-rule:evenodd;fill:#EA5255;}
	.st3{fill-rule:evenodd;clip-rule:evenodd;fill:#54C9BD;}
	.st4{fill-rule:evenodd;clip-rule:evenodd;fill:#38C5E8;}
	.st5{fill:#38C5E8;}
	.st6{fill-rule:evenodd;clip-rule:evenodd;fill:#58CD7E;}
	.st7{fill:#58CD7E;}
	.st8{fill-rule:evenodd;clip-rule:evenodd;fill:#5038CD;}
	.st9{fill:#5038CD;}
	.st10{fill-rule:evenodd;clip-rule:evenodd;fill:#D48BD7;}
	.st11{fill:#D48BD7;}
	.st12{fill-rule:evenodd;clip-rule:evenodd;fill:#F3C821;}
	.st13{fill-rule:evenodd;clip-rule:evenodd;fill:#73D6E1;}
</style>
<g>
	<polygon class="st0" points="353.7,137.7 355.5,137.9 355.9,136.6 354.7,135.3 353.2,135.8 	"/>
	<polygon class="st0" points="359.5,147 361.7,147.8 363.9,147.4 363,144.1 360.3,145.6 	"/>
	<polygon class="st0" points="364.6,148.7 362,148.8 360.7,153.5 356.4,149.6 355.2,153.6 359.7,158.6 360,162.9 351.7,155.5 
		351.4,150.8 354.9,146.5 355.4,139.5 354,140.2 352.3,144.9 349.7,147.2 347,148 344.3,151.9 344.5,162.3 338.1,172.3 338.5,178.4 
		345,178.4 350.4,184.8 350.4,191 346.6,195.5 347.6,197.6 350.6,199.3 345,200.6 343.4,194.8 347.6,187.4 345.8,182 339.4,181 
		335.9,184.4 335.5,192.1 329.6,198.1 324.2,200.1 320.6,204 308.3,196.5 308.3,192.8 316.5,196.6 320.9,194.9 327.8,190.4 
		332.5,181 331.7,176 339.6,157 340.6,153.8 339.6,149.5 344.9,144.5 345.9,137.6 341.9,132.2 346,131.7 345.4,126.6 341.3,126.3 
		341,130 341.9,132.2 339.3,131.2 335.3,134.2 330.6,140.2 327,143.7 321.5,145 318.6,147.8 321.5,151.5 318.4,157.2 314.1,158.5 
		313.9,160.4 317.7,164.3 316.4,168 317.1,170.3 318.5,172.4 313.7,176.9 312.1,174.4 310.8,168.8 305.7,160.6 302.8,163 
		304.5,166.1 304.6,166.2 304.5,166.3 300.9,172.7 302.3,177.2 302.3,177.3 302.3,177.4 300.1,180.8 300,180.9 299.9,180.9 
		296.4,182.1 294,184.9 293.9,185 293.8,185 284.8,185.4 280.3,189.1 280.2,189.2 280.1,189.2 277.2,189.3 276.9,196.9 276.9,197 
		276.9,197 273.3,202 275.6,206.8 284.3,207.4 284.4,207.4 284.4,207.5 288.5,210.7 288.6,210.8 288.6,210.9 288.8,215 290.2,216.4 
		300.1,216.9 300.2,216.9 300.3,217 303.4,220.9 303.4,220.9 303.4,221 303.7,227.3 305.4,229.5 305.4,229.6 305.4,229.7 
		305.3,233.8 312,233.8 312,233.9 318,239.3 326.2,242.9 326.3,242.9 326.3,243 329.4,248 334.7,251.3 340.2,251.8 344.6,248.5 
		344.8,248.4 344.9,248.6 349,252.3 353.2,252.2 353.3,252.2 353.4,252.3 356.5,256.9 358.1,257 358.2,257 358.3,257.1 361.3,260.1 
		367.5,252.2 367.9,247.1 367.9,247 367.9,247 372,241.3 371.3,236.7 366.6,233.2 366.5,233.1 366.5,233 367.7,226.3 364.6,222 
		364.5,222 364.5,221.9 365.5,212.6 361.6,207.5 361.5,207.4 361.5,207.3 363.1,202.6 361.6,198.9 361.4,198.7 361.7,198.6 
		366.8,197.2 368.9,191.8 367.8,185.4 362.5,184.1 362.4,184.1 362.4,184 357.5,177.6 357.4,177.5 357.5,177.4 358.4,173.5 
		358.5,173.4 358.6,173.4 365.8,170.1 366.6,167.2 363.5,160.7 363.5,160.6 363.5,160.5 364.3,156.3 364.3,156.1 364.5,156.1 
		367.6,155.6 364.7,149.2 364.6,149.2 364.6,149.2 	"/>
	<polygon class="st0" points="255.8,304.1 259.5,304 262.5,309.1 264.9,309.5 265,309.4 265.8,307.3 265.8,307.2 265.9,307.2 
		270.1,303.2 270.8,300.1 270.8,300 270.9,300 273.5,297.1 273.5,297 273.7,297.1 276.9,297.7 277.7,296.4 278.3,294.1 277.4,291.7 
		274.6,290.6 274.5,290.6 274.5,290.4 274.1,289 274,288.8 274.1,288.7 275.4,287.2 275.8,283.2 275.8,283.1 275.9,283 280.5,278.5 
		280.7,278.4 280.9,278.5 283.4,281.1 283.6,281.3 283.5,281.4 282.1,283.4 283.9,283.8 283.9,283.8 284,283.8 288.6,287.1 
		292.2,286.6 292.3,286.6 292.3,286.6 295.7,288.5 298.9,288.6 303.4,285.6 295.5,279.7 295.4,279.7 295.4,279.6 291.6,272.2 
		291.6,272.2 288.8,265.9 286.6,265.4 286.6,265.4 286.6,265.4 282,263.5 281.9,263.4 281.9,263.4 279.6,261.2 278.9,263 
		278.8,263.2 278.6,263.2 275,263.1 274.1,264.1 274.1,264.1 274,264.1 271.7,265.3 271.6,265.4 271.5,265.4 269.8,265 268.6,265.9 
		268.6,265.9 266.1,265.9 266.1,265.9 263.1,264.6 261.9,267 261.8,267.1 261.7,267.1 257.6,267.9 254.9,272.5 254.9,272.7 
		254.7,272.7 247.4,272.4 245.3,276.7 245.5,280.8 245.5,281 245.3,281 243.3,281.6 242.7,284.9 244.3,288.7 244.3,288.7 
		244.3,288.8 245,291.3 248.1,292.3 248.2,292.3 248.2,292.3 251.1,294.9 251.2,295 251.2,295.1 251.3,297.8 255.5,301.5 
		255.6,301.5 255.6,301.6 255.8,304.1 255.8,304.1 	"/>
	<polygon class="st0" points="221,299.6 228.3,301.3 232.5,303.9 235,301.9 238.6,303.9 250.9,306.2 255.3,304.2 255.4,304.1 
		255.1,301.8 250.9,298.1 250.8,298 250.8,297.9 250.7,295.2 247.9,292.7 244.8,291.8 244.6,291.7 244.6,291.6 243.9,288.9 
		242.2,285 242.2,284.9 242.2,284.8 242.9,281.5 239.4,279.9 236.8,281.2 236.6,281.2 236.5,281.1 234.4,278.4 229.8,276.8 
		224.7,278.4 225,279.8 225,279.8 225,279.9 224.9,284.5 224.9,284.7 224.8,284.7 217.8,289.9 217.6,292.5 222.9,295.6 223.1,295.7 
		223,295.9 	"/>
	<polygon class="st0" points="192.1,312.4 193.6,310.4 198.5,310 198.9,306.5 201.3,305.2 203.8,305.3 206.8,307.7 208.6,306 
		206.4,302.3 205.3,298.7 207.8,296 210,295.4 213.4,299 220.5,299.5 220.5,299.5 220.5,299.4 220.5,299.4 222.4,295.9 217.3,292.8 
		217.1,292.7 217.1,292.6 217.3,289.8 217.3,289.7 217.4,289.6 224.4,284.4 224.5,279.9 223.9,276.7 222,274.9 221,275.5 
		220.9,275.5 220.8,275.5 219,275.1 219,275.1 218.9,275 211.5,268.7 210.2,269 209.8,271.5 209.8,271.5 209.8,271.6 208.3,274.5 
		208.5,275.9 210,278 210.1,278.1 210,278.3 209.1,280.1 209.1,280.2 209,280.2 207.7,281 207.5,281 207.4,280.9 204.8,278.4 
		203.8,277.7 202.3,277.6 200.6,278.4 200.4,278.4 200.3,278.3 198.8,277.1 198.7,277 198.7,276.9 198.6,273.7 197.3,272 
		195.6,271.8 192.5,273.7 191.7,276 193.5,280 195,281.2 201.8,283.4 203.3,282.7 203.3,282.7 204.5,282.1 204.6,282 204.8,282.2 
		206.7,284.2 206.9,284.4 206.7,284.6 205.3,285.7 205.2,285.8 205.2,285.8 203.1,286.4 202.3,289.3 202.2,289.4 200.7,289.4 
		200.7,289.4 198.6,288.3 194.4,290.7 191.9,295 191.5,297.6 191.5,297.8 191.3,297.8 188.2,298.5 187.9,300.7 187.9,300.7 
		187.6,302.8 192.7,304.4 192.8,304.4 192.9,304.5 193.9,306.8 194,306.9 193.9,307 193.4,308.6 193.4,308.7 193.3,308.8 
		191.4,310.3 	"/>
	<polygon class="st0" points="244.2,217.8 242.9,220 242,222.1 242,222.1 242,222.1 237.8,227.7 237.8,227.7 237.8,227.7 
		231.5,233.9 231.4,233.9 231.4,233.9 226.1,236.3 226,238.7 227.7,242 227.8,242.1 227.6,242.2 225.4,244.9 225,248.4 225,248.5 
		224.9,248.5 223.5,250.4 223.4,250.4 223.3,250.5 218.3,250.7 217.6,253.8 217.6,253.9 217.5,254 215.4,255.3 215.2,255.5 
		215.1,255.3 213.1,253.1 210.3,257.5 210.2,257.6 210.1,257.6 205.5,258.1 201.6,262.7 202.3,264.9 204.1,266.4 208.5,268.3 
		210,268.5 211.5,268.1 211.6,268.1 211.7,268.2 219.2,274.6 220.8,275 221.9,274.4 222.1,274.3 222.2,274.4 224.3,276.4 
		224.3,276.4 224.4,276.5 224.6,277.9 229.8,276.3 229.9,276.3 229.9,276.3 234.6,277.9 234.7,278 234.7,278 236.7,280.6 
		239.3,279.4 239.4,279.3 239.5,279.4 243.1,281.1 245,280.6 244.9,276.6 244.9,276.6 244.9,276.5 247,272.1 247,271.9 247.2,271.9 
		254.6,272.2 257.2,267.7 255.3,264.9 255.2,264.8 255.2,264.7 255.5,262 255.5,262 256.2,257.1 251.1,253.9 251.1,253.8 251,253.8 
		250.2,251.5 250.1,251.4 250.2,251.3 253.1,247.8 252.5,244.8 252.5,244.8 251.5,239.5 251.5,239.4 251.6,239.3 254,235.9 
		253.9,232 251.1,225.3 246.3,222.5 246.2,222.5 246.2,222.4 245.5,219.1 	"/>
	<polygon class="st0" points="276.7,189.3 273.9,189.3 269.8,192.9 269.7,193 269.6,193 266,193.2 265.8,193.2 265.7,193.1 
		264.5,191.2 258.6,196.4 257.7,199.9 257.6,199.9 257.6,200 251.3,205.6 244.4,217.3 245.9,218.8 245.9,218.9 246,218.9 
		246.7,222.2 251.4,225 251.5,225 251.5,225.1 254.3,231.9 254.4,231.9 254.4,231.9 254.5,236 254.5,236.1 254.4,236.2 252,239.5 
		253,244.7 253,244.7 253.6,247.8 253.6,247.9 253.6,248 250.7,251.5 251.5,253.5 256.6,256.8 256.7,256.9 256.7,257 256,262.1 
		256,262.1 255.7,264.7 257.6,267.5 261.5,266.7 262.8,264.2 262.9,264 263.1,264.1 266.2,265.4 268.4,265.4 269.5,264.5 
		269.6,264.5 269.7,264.5 271.6,264.9 273.7,263.7 274.7,262.7 274.7,262.6 274.9,262.6 278.5,262.7 279.2,260.7 279.4,260.4 
		279.6,260.6 282.2,263 286.7,264.9 289,265.4 289.1,265.5 289.2,265.6 292,271.9 292,271.9 295.8,279.4 303.8,285.3 308.2,282.8 
		308.7,280.1 308.7,280 308.8,280 311.5,278.2 311.5,278.2 311.6,278.2 314.8,278.6 317.5,269.9 317.5,269.8 317.6,269.7 
		321.4,266.8 321.5,266.7 321.7,266.8 325.8,268 325.8,268 325.9,268 331.4,271.7 339.8,271.8 339.9,271.8 340,271.9 345.9,276.2 
		352.9,272.1 353.1,272 353.2,272.1 356.8,274.7 361,274.2 365.5,272.3 366.3,270.2 361.2,267.2 361.1,267.1 361.1,260.6 358,257.5 
		356.4,257.4 356.2,257.4 356.2,257.3 353,252.7 348.9,252.8 348.8,252.8 348.7,252.8 344.8,249 340.4,252.3 340.3,252.3 
		340.2,252.3 334.6,251.8 334.6,251.8 334.5,251.7 329.1,248.4 329,248.4 329,248.3 326,243.3 317.8,239.8 317.7,239.7 317.7,239.7 
		311.8,234.3 304.8,234.3 304.8,234.1 304.9,229.7 303.3,227.6 303.2,227.5 303.2,227.4 303,221.1 300,217.4 290.1,216.8 290,216.8 
		290,216.8 288.4,215.3 288.3,215.2 288.3,215.1 288.2,211 284.2,207.9 275.4,207.3 275.3,207.2 275.2,207.1 272.8,202 272.8,201.9 
		272.9,201.8 276.4,196.8 	"/>
</g>
<g>
	<polygon class="st1" points="106.5,133.9 105.3,134.8 104.6,136.7 104.8,142.8 104.8,143 104.6,143.1 100.1,144.5 99.8,146.6 
		99.8,146.8 99.6,146.8 98.1,147 97.7,148.5 97.7,148.5 97.6,148.6 97,149.2 98.5,150.8 101.4,152.9 107,154.3 107.1,154.4 
		107.1,154.4 109,156.1 114.5,156.5 114.9,154.5 114.9,154.4 114.9,154.4 116,153.6 116.2,153.5 116.3,153.6 118.8,155.4 
		118.9,155.4 118.9,155.5 119.5,157.8 122.5,160.3 125.1,160.1 125.2,160.1 125.3,160.2 129.3,163.8 129.5,161.9 128.8,159.6 
		127,157.6 126.9,157.5 127,157.3 128.7,154.6 128.4,151.6 126.8,148.4 126.7,148.4 126.8,148.3 127.2,146.1 125.6,145.9 
		125.5,145.8 125.4,145.7 125.1,144.2 122.3,144.1 122.2,144.1 122.1,144 121.3,142.5 121.2,142.4 121.3,142.3 122,141 121.8,139.2 
		119.7,138.5 119.1,139.4 119,139.5 118.8,139.4 117.4,139.3 117.3,139.3 117.2,139.2 115.8,137.9 113.4,138.2 113.2,138.2 
		113.2,138.1 111.8,135.7 110.3,135 107.6,136.3 107.3,136.4 107.2,136.2 	"/>
	<polygon class="st1" points="134.7,169.1 140,172.5 142.1,172.4 142.2,172.4 142.3,172.5 144.8,175.6 144.9,175.7 144.8,175.8 
		143.6,180.2 146.8,183.3 155.5,183.7 155.5,183.7 155.6,183.7 161.3,187.2 161.4,187.2 161.4,187.3 165.1,194.2 171.2,197.7 
		175.3,196.7 175.4,196.6 175.5,196.7 177.3,198.5 180.2,195.5 177.6,193.1 177.5,193 177.6,192.9 178.2,191.2 178.3,191.1 
		178.5,191.1 182.2,191.3 186.3,188.6 186.3,185.8 183.5,184.5 183.3,184.4 183.4,184.2 184.3,181.8 181.7,180.9 180,181.7 
		179.8,181.8 179.7,181.6 177.6,176.4 172.6,176.2 172.5,176.2 172.4,176.2 169.2,172.5 166.2,170.6 166.2,170.5 166.2,170.5 
		163.3,167.8 163.3,167.8 163.2,167.8 154.7,158.1 154.6,158 154.6,157.9 155.3,153 155.3,153 155.3,152.9 158.5,149.3 156.4,148.6 
		156.2,148.6 156.2,145.1 153.7,145.1 151.9,146.8 151.9,146.9 151.8,146.8 148.1,146.7 148.1,146.7 148,146.6 146.3,144.8 
		144.7,144.8 142.3,145.6 138.4,148.5 135.9,153.8 135.8,153.9 135.7,153.9 131.5,153.6 129.1,154.8 127.5,157.4 129.2,159.3 
		129.3,159.4 129.3,159.4 130,161.8 130,161.9 130,161.9 129.8,164 133.9,164 134.1,164 134.2,164.2 	"/>
	<polygon class="st1" points="105.8,121.9 103.3,122.2 99.2,125.3 96.9,128.6 92.3,128.3 89.5,132.9 86.3,133.3 86.2,136.8 
		81.3,139.9 81.6,144.5 83.5,147 81.3,149.7 81.8,151.9 85,152.7 85.6,156 84.6,157.7 84.9,157.8 86.9,157.2 87,157.2 87.1,157.3 
		88.2,157.8 92.2,157.1 93.8,154.6 94.7,150.9 94.7,150.8 94.7,150.8 97.2,148.3 97.7,146.7 97.7,146.5 97.9,146.5 99.3,146.4 
		99.6,144.3 99.6,144.1 99.8,144.1 104.3,142.6 104.1,136.7 104.1,136.6 104.2,136.6 104.9,134.6 104.9,134.5 105,134.5 
		106.4,133.3 107.9,128.8 106,125.8 106,125.7 106,125.7 	"/>
	<polygon class="st1" points="130.5,115.5 126.2,115.7 120.9,117.6 120.6,121.9 121.1,123.9 119.6,125.2 118.4,122.2 116.3,122 
		113,118.9 109,121.5 106.3,121.8 106.4,125.6 108.4,128.7 108.4,128.8 108.4,128.9 106.9,133.5 107.6,135.7 110.1,134.5 
		110.3,134.4 110.4,134.5 112.1,135.3 112.2,135.3 112.2,135.4 113.5,137.7 115.8,137.4 115.9,137.4 116,137.5 117.5,138.8 
		118.8,139 119.4,138.1 119.5,137.9 119.7,138 122.1,138.8 122.3,138.9 122.3,139 122.5,141 122.5,141.1 122.4,141.1 121.8,142.4 
		122.5,143.7 125.3,143.7 125.5,143.7 125.5,143.9 125.9,145.4 127.5,145.6 127.8,145.7 127.7,145.9 127.2,148.3 128.8,151.4 
		128.9,151.5 128.9,151.5 129.2,154.3 131.3,153.1 131.4,153.1 131.4,153.1 135.5,153.4 138,148.2 138,148.2 138.1,148.1 142,145.2 
		142.1,145.2 142.1,145.1 144.6,144.3 144.6,144.3 144.6,144.3 148.1,144.4 149.9,142.9 146.5,138.6 144.4,138.2 144.3,138.2 
		144.2,138 143.2,134.7 141.9,134.8 141.7,136.8 141.6,137.1 141.4,137.1 140.3,136.8 140.2,136.8 140.2,136.7 139.3,135.3 
		138.3,135.6 138.1,138 138.1,138.3 137.9,138.2 136.4,137.9 136.3,137.9 136.2,137.7 135.4,136 131.3,136.1 131.1,136.1 131.1,136 
		129.4,133.5 125.4,133.5 125.3,133.4 124.3,132.1 124.1,132 124.3,131.8 130.9,123.7 	"/>
	<polygon class="st1" points="188.1,99.2 189.1,92.5 190.7,94.8 190.1,99.5 192,103.6 192.5,110.6 195.3,114.7 195.9,119 
		206.1,125.2 212.4,124 217.1,117.6 218.4,110.8 216.3,102.7 216.6,91 215.3,86.7 212,81.5 211.5,77.4 212.9,76.5 214.9,79.2 
		216.8,77.9 215,74.4 208.1,69.7 198.2,68.8 196.2,70.2 191.2,73.1 191.4,77 188,82.5 181.3,82.6 179.1,85.4 184,91.9 184,92 
		184,92.1 183.2,96 187.3,98 187.3,98 187.4,98.1 	"/>
	<polygon class="st1" points="175.9,126.4 175.6,124.3 176,122.4 174.3,120.1 175.8,117.2 180.7,111.2 184.7,109.9 187.1,105.9 
		187.9,100 187,98.4 182.9,96.3 182.7,96.2 182.7,96 183.5,92.1 178.8,85.8 173.2,92.8 170.3,92.7 166.7,95.2 164.1,95 163,97.6 
		161.9,99.9 159.8,101.4 160.9,103.6 159.5,105.1 154.7,104.3 153.4,108.9 152.5,115.8 149.6,117 136.8,115.3 131,115.5 
		131.2,119.2 134.3,118.6 134.4,118.6 134.4,118.6 138.5,119.2 138.6,119.2 138.7,119.3 140.3,121.6 140.4,121.6 140.4,121.7 
		140.3,124.6 140.3,124.7 140.2,124.7 138.8,126.4 139,129.6 139,129.6 139,129.6 138.6,132.4 138.5,132.5 138.5,132.6 136.4,134.2 
		135.8,135.7 136.6,137.4 137.7,137.7 137.8,135.4 137.8,135.2 138,135.2 139.4,134.8 139.6,134.7 139.7,134.9 140.5,136.4 
		141.2,136.5 141.4,134.6 141.5,134.4 141.7,134.4 143.4,134.2 143.6,134.2 143.6,134.4 144.7,137.8 146.7,138.1 146.8,138.2 
		146.9,138.2 150.1,142.5 150.6,141.1 150.3,137.1 150.3,137 150.3,137 151.8,134.1 151.8,134.1 151.8,134 157.2,128.3 157.3,128.2 
		157.4,128.2 160.5,128.9 160.6,129 160.7,129.1 161.7,130.9 161.7,130.9 161.7,131 161.2,134.1 161.2,134.2 161.1,134.3 
		158.8,136.5 154.9,140.9 153.9,144.6 156.5,144.6 156.7,144.6 156.7,148.2 158.8,148.9 160.3,147.3 160.4,147.2 162.4,147.2 
		163.2,143.7 163.2,143.6 163.3,143.5 166.8,139.8 166,138.4 166,138.3 164.8,136.4 164.8,136.3 164.8,136.2 165.6,133.3 
		165.6,133.3 165.7,133.2 169.2,129.7 169.5,127.9 169.5,127.6 169.8,127.7 172.2,128.3 173.7,128.6 175.5,126.6 175.6,126.6 
		175.6,126.5 	"/>
	<polygon class="st1" points="230.9,152.9 226,159.1 227.7,161.7 227.8,161.8 227.7,161.9 226.6,163.9 227.4,167.2 227.5,167.4 
		227.3,167.5 224.3,169.3 224.1,169.3 224,169.3 220,166.7 216.2,166.9 216,166.9 216,166.7 215.4,163.9 205.8,156.5 204.7,158.1 
		207.4,162.5 207.4,162.6 207.4,162.7 206.6,166.4 206.6,166.4 206.5,166.5 204.3,168.8 205.3,170.6 205.3,170.6 205.3,170.7 
		205.5,172.6 205.5,172.8 205.3,172.9 201.5,173 198.5,176.9 198.4,179.2 201.9,180.7 203.4,178.9 203.5,178.9 203.6,178.8 
		206.9,177.7 207.1,177.6 207.2,177.8 209.3,182 209.4,182.2 209.3,182.3 201.4,188.6 201.3,192 201.3,192.1 201.2,192.2 
		198.4,194.3 198.3,194.4 198.2,194.3 194.8,192.9 192.3,194.9 185.1,203 185.8,204.7 185.8,204.8 185.8,204.8 185.8,210.2 
		187,211.2 190,207.8 190.1,207.6 190.3,207.7 199.5,211.3 202.7,209.8 204.5,205.3 204.6,205.2 204.7,205.2 210.9,205.8 
		210.9,205.8 211,205.8 215.5,210.9 220.5,213.5 227.4,214.3 230.2,212.8 230.3,212.7 230.5,212.8 238,218.9 242.6,219.6 
		250.9,205.3 250.9,205.3 251,205.2 257.2,199.7 258.2,196.2 258.2,196.2 258.2,196.1 264.4,190.6 264.6,190.4 264.8,190.7 
		266.1,192.7 269.5,192.5 273.6,188.9 273.7,188.8 273.8,188.8 280,188.7 284.6,184.9 284.7,184.9 284.7,184.9 293.7,184.5 
		296,181.8 296.1,181.7 296.2,181.7 299.7,180.5 301.8,177.2 300.4,172.7 300.4,172.6 300.4,172.5 302.1,169.6 300.4,169.3 
		299.2,171 299.2,171.1 296.9,171.1 294.2,173.6 294.1,173.7 294,173.7 290.7,172.9 288.2,175.8 288.1,175.9 288,175.9 280.5,176.5 
		280.4,176.5 280.4,176.5 248,153.4 244.9,154.3 244.9,154.4 244.8,154.4 	"/>
	<polygon class="st1" points="181.5,117.4 182.5,118.5 183.9,117.6 183.5,116 182.4,115.2 181.6,116.3 	"/>
	<polygon class="st1" points="305.5,160.2 303,155.6 296.4,148.5 291.5,148.5 290.8,151.4 290.7,155.7 287.2,157.8 285.2,157.4 
		283.9,159.4 281.4,157.4 284.3,154.8 284.3,151.9 275,151.8 270.5,148.4 263.4,149.1 260.9,145.7 265.1,145.3 267.3,141 
		261.7,139.7 259.1,142.8 257.8,140.5 243.4,136.9 241.6,138.8 239.5,136.8 232,141.2 228,137.4 229.2,134.1 228,130.7 232.7,129.1 
		237,132.1 239.1,128.7 239,122.6 233.3,116.3 231.6,122.4 223.7,127.5 223.1,131.4 219.3,134.8 220.8,142.7 224.9,148.8 
		228.7,149.3 228.8,149.3 228.9,149.4 230.9,152.4 244.8,153.9 248,152.9 248.1,152.8 248.2,152.9 280.6,176 287.8,175.4 
		290.4,172.5 290.5,172.4 290.6,172.4 293.9,173.2 296.7,170.7 296.7,170.6 298.9,170.6 300.1,168.9 300.1,168.7 300.3,168.8 
		302.3,169.2 304,166.2 302.3,163.1 302.2,162.9 302.3,162.8 	"/>
	<polygon class="st1" points="294,146.6 291.1,146.9 288.8,143.1 289.4,139.6 293.1,138.7 294.1,142.7 	"/>
	<polygon class="st1" points="249.2,128.7 251.4,131.6 256.7,131.8 257.3,129.8 257,126.8 254.2,123.8 250.2,125.2 	"/>
	<polygon class="st1" points="288.5,132.6 289.7,121 290.6,116.6 294.4,112.5 299,110.9 300.9,108.3 299.8,105.1 303.1,107.3 
		306.2,107 307,104.7 308.9,104.8 309.1,102.5 311.5,103.5 312,101.2 313.8,103.1 315.2,101.3 315.7,98.6 318.2,100.4 319.9,98.9 
		323.4,99.6 326.3,96.3 348.6,95.8 354,92.9 354.6,89 352.3,86.2 346.9,87.6 346,89.6 336.9,88.8 332.9,85.4 329.4,87.4 325.9,85.9 
		321.5,88.8 317.8,88.8 316,90.3 313.5,87.7 312.3,93.1 309.5,93.2 309.2,95.4 302.4,97.5 299.9,96.4 298.4,98.3 300.4,100.2 
		297.6,102.8 293.2,101 292.6,104.4 289.4,104.2 289.3,106.8 284.8,109.1 282.1,108.2 279,110.5 278.9,113.8 281.8,116.7 
		281.9,121.2 279.2,123.9 281.3,128.6 283.8,128.9 283.9,131.1 286.7,131.7 	"/>
	<polygon class="st1" points="218.9,135.2 215,138.8 213.2,135.4 215.8,134.8 212.5,128.7 207.5,129.5 202.6,127.8 196.5,128.7 
		193.1,137.2 190.6,135.8 187.1,127.5 187.6,121.1 181.8,121.8 180.3,127.3 182.7,130.3 180.4,133.4 176.6,131.3 176,126.9 
		175.8,127 173.9,129 173.8,129.1 173.7,129.1 172.1,128.8 172.1,128.8 169.9,128.2 169.6,129.9 169.6,129.9 169.6,130 166.1,133.5 
		165.3,136.3 166.4,138.1 167.4,139.7 167.4,139.9 167.3,140 163.7,143.8 162.9,147.5 162.8,147.7 160.6,147.7 159.1,149.4 
		159.1,149.4 155.7,153.2 155.1,157.8 163.6,167.4 166.5,170.2 169.5,172.1 169.6,172.1 169.6,172.1 172.7,175.8 177.8,175.9 
		178,175.9 178,176.1 180,181.2 181.6,180.5 181.7,180.4 181.7,180.5 184.7,181.4 184.9,181.5 184.8,181.7 183.9,184.1 186.6,185.5 
		186.8,185.5 186.8,188.5 189.5,188 189.7,188 189.8,188.1 192,190.9 192.1,190.9 192.1,191 192.4,194.3 194.6,192.4 194.7,192.4 
		194.8,192.4 198.3,193.8 200.8,191.9 201,188.4 201,188.3 201.1,188.2 208.8,182.1 206.9,178.2 203.8,179.3 202.2,181.2 
		202.1,181.3 201.9,181.2 198,179.6 197.9,179.6 197.9,179.4 198.1,176.8 198.1,176.7 198.1,176.7 201.2,172.6 201.2,172.5 
		201.4,172.5 205,172.4 204.8,170.7 203.7,168.9 203.6,168.7 203.8,168.6 206.1,166.2 206.9,162.6 204.2,158.2 204.1,158.1 
		204.2,157.9 205.5,156 205.7,155.8 205.9,156 215.7,163.5 215.8,163.6 215.8,163.7 216.4,166.4 220.1,166.2 220.2,166.2 
		220.2,166.3 224.1,168.8 226.9,167.2 226.2,164 226.1,163.9 226.2,163.8 227.2,161.8 225.5,159.2 225.4,159 225.6,158.9 
		230.4,152.6 228.5,149.8 224.7,149.3 224.6,149.3 224.6,149.2 220.4,142.9 220.4,142.8 220.3,142.8 	"/>
	<polygon class="st1" points="349.5,46.1 351.1,47.6 353.3,45.7 352.2,44.1 350.6,44.5 	"/>
	<polygon class="st1" points="353,47.4 354.2,48.5 356.4,47.3 357,44.8 355.3,44.4 	"/>
	<polygon class="st1" points="358.8,47.1 360.9,49.1 365.2,46.9 364.4,44.5 361.4,43.3 358.9,45.4 	"/>
	<polygon class="st1" points="363.3,42.6 365.2,43.5 366.4,42.1 364.9,40.7 	"/>
	<polygon class="st1" points="371.3,37.5 371.9,39.4 373.8,38.7 373.1,36.4 	"/>
	<polygon class="st1" points="365.3,32.8 366.3,33.7 367.6,32.7 365.7,30.8 364.7,31.6 	"/>
	<polygon class="st1" points="359.8,34 360.1,35.5 362.1,36.8 363.3,35 362.2,32.8 	"/>
	<polygon class="st1" points="355.8,35.6 359.7,39 359.2,42 355.3,40.7 352.8,37.7 	"/>
	<polygon class="st1" points="366.6,46.6 367.1,48.9 371.3,48.8 373.1,45.9 371.6,43.6 369.8,46.2 367.1,45.5 	"/>
	<polygon class="st1" points="354.9,51.7 356,53.3 357.1,52 356,50.3 	"/>
	<polygon class="st1" points="344.4,40.6 346.1,43.5 348.1,41.6 347.1,39.1 	"/>
	<polygon class="st1" points="349.4,39.6 349.8,41.4 350.9,40.6 350,38.6 	"/>
	<polygon class="st1" points="347.5,30 348.9,31.8 350.1,30.6 348,28.8 	"/>
	<polygon class="st1" points="335.6,26.4 336.2,28.8 338,30.2 340.7,30 342.3,31.3 343.3,30.1 341.3,28.3 339.4,28.9 	"/>
	<polygon class="st1" points="336.1,32.6 335.9,34.7 337.8,36.6 339.7,39 340.3,37.9 339.8,35.6 342.5,35 345.8,36.1 347.9,34 
		346,31.7 344.4,31.1 342.7,32.4 340.3,32.8 338.9,33.4 	"/>
	<polygon class="st1" points="340.2,40.6 339.8,42 341.4,42.9 341.5,41 	"/>
	<polygon class="st1" points="39.9,103.9 48.7,123 54.2,120.1 54.7,109.6 52.1,105.6 50.9,110.3 48.3,108.7 46.1,102.5 43.5,104.1 	
		"/>
	<polygon id="ea5255" class="st2" points="278.6,121 280.2,119.8 280.2,117 278.3,116.6 	"/>
</g>
<g>
	<polygon class="st3" points="45.4,327.9 44,329.3 44.3,333.2 47.9,338.5 47.6,343.9 47,346.6 50.3,350.6 51.8,350 52.7,348.4 
		54.7,349.4 56.8,350.1 59.3,348.5 59.3,341.6 61,331.8 67.2,325.8 67.8,319.5 67.1,316.8 70.1,314.5 69.2,312.2 65.3,308.2 
		63.8,309.3 63.7,309.4 63.6,309.4 59.4,309.2 57.1,311 57.9,312.6 58,312.8 57.8,313 55.7,314.2 58.3,318 61.2,318.5 61.3,318.5 
		61.3,318.7 62.3,322.1 62.3,322.3 62.1,322.4 59.9,323.3 59.9,323.3 59.8,323.3 57.6,323.2 54.8,328.6 54.7,328.9 54.4,328.7 
		52.2,326.9 51,328.3 50.9,328.4 50.8,328.4 	"/>
	<polygon class="st3" points="44.2,323 45.2,325.5 45.6,327.5 50.7,327.9 52,326.4 52.2,326.2 52.4,326.3 54.5,328.1 57.3,322.8 
		57.3,322.7 57.5,322.7 59.8,322.8 61.7,322 60.9,318.9 58.2,318.4 58.1,318.4 58,318.3 54.3,313 51.4,312.8 50,313.4 51.6,319.4 
		51.6,319.6 51.4,319.7 	"/>
	<polygon class="st3" points="42.5,320.5 42.6,321.6 43.9,322.7 51,319.3 49.5,313.6 48.2,314.2 47,318.1 47,318.2 46.9,318.2 
		45.1,319.7 45.1,319.7 45,319.7 	"/>
	<polygon class="st3" points="37,312.3 37.2,316.8 42.4,319.3 42.5,320 44.9,319.2 46.6,317.9 47.8,314 47.8,313.9 47.9,313.8 
		50.9,312.5 48.6,310.7 47.7,312.2 47.6,312.3 47.5,312.3 41.5,310.8 37.1,312.2 	"/>
	<polygon class="st3" points="33.2,303.3 35.9,306.4 36,310.5 36.9,311.8 36.9,311.8 36.9,311.8 41.5,310.3 41.5,310.3 41.6,310.3 
		47.4,311.7 49.2,308.6 48.4,305.9 45.6,305.9 45.5,305.9 40.2,301 36.3,300.9 	"/>
	<polygon class="st3" points="26.4,290.8 29.6,296.2 29.6,299.4 32.8,303 36.1,300.4 36.2,300.4 36.3,300.4 40,300.5 39.8,296.6 
		39.8,296.5 39.9,296.4 41.9,295.1 39.1,289.7 38.1,291.6 38,291.8 37.9,291.8 34.4,291.4 34.3,291.4 34.3,291.3 32.4,288.7 	"/>
	<polygon class="st3" points="49.1,276.8 47.3,278.3 47.1,278.5 46.9,278.2 45.6,275.9 43.9,276.7 43.8,278.2 43.8,278.2 
		43.7,278.3 42.1,279.9 43.5,281.2 43.6,281.3 43.6,281.5 42.2,284.1 43.2,285.6 43.3,285.9 43.1,286 40.4,287 39.4,289.2 
		42.5,295.1 42.6,295.2 42.4,295.4 40.3,296.7 40.5,300.7 45.8,305.4 48.8,305.4 48.8,305.6 49.7,308.5 49.8,308.6 49.7,308.7 
		48.8,310.2 51.4,312.3 54.4,312.5 54.5,312.5 54.6,312.6 55.5,313.8 57.3,312.7 56.5,311.1 56.5,310.9 56.6,310.8 59.1,308.8 
		59.2,308.7 59.3,308.7 63.6,308.9 65,307.7 65.2,303.9 64.3,300.2 61.6,295.3 61.6,295.2 61.6,295.1 62.3,290.9 59.8,286.6 
		59.8,286.6 59.8,286.5 58.7,283.8 56.3,283.1 56.2,283 56.2,283 55,281.3 53.2,281.6 53,281.7 52.9,281.5 	"/>
</g>
<g>
	<polygon class="st4" points="473.9,131.8 476.9,134.2 478.2,132 478.7,130.2 477,129.2 475,128.9 	"/>
	<polygon class="st4" points="468,138.9 469,140.1 472.3,138 471.5,136 469.5,135.9 468.3,137.8 	"/>
	<polygon class="st4" points="370,396.5 386.8,390.2 392.8,389.8 393.8,391.3 402.8,393.3 403.5,397.3 406.9,399 416.4,400.1 
		420.2,400.6 422.1,402.4 425.1,401.4 427.9,399 429.8,394.2 426.6,390.3 427,384.3 429.1,383.6 429.2,380.9 431.9,380.8 
		432.7,377.8 430.9,374.4 430.9,374.3 431,374.1 432.9,372 432.4,370 432.3,369.8 432.4,369.7 433.8,368.3 433.5,366.9 429.6,367.2 
		429.5,367.2 429.4,367.2 419.6,360.3 419,363 419,363.2 418.8,363.2 406.8,364.3 406.1,367.4 406,367.6 405.9,367.6 403.6,368.2 
		403.8,370.4 403.8,370.5 403.7,370.6 400.5,372.7 400.3,374.8 400.3,375 400.1,375.1 397.9,375.6 394,378.9 393.9,378.9 
		393.8,378.9 384.6,377.7 384.5,377.7 384.5,377.7 378.8,373.7 376.2,373.5 374.6,377.9 374.5,378.1 374.3,378.1 367.8,378.5 
		368.2,383 372.1,390 372.2,390.2 372.1,390.3 369.3,392.2 	"/>
	<path class="st4" d="M361.9,372.1l2.9-1l2.1-1.1l3.6-3.6l-0.8-2.3l0-0.1l0-0.1l0.6-2.6l-0.9-3.4l0-0.1l0.1-0.1l2.4-3l1.2-3.7
		l-3.5-1.2l-0.1,0l0-0.1l-0.7-2.2l0-0.1l0.1-0.1l2.8-3.6l-1.5-3.6l0-0.1l0-0.1l0.7-2.8l0-0.1l0.1-0.1l3.7-1.7l1.8-1.8l-3.9-7.5
		l0-0.1l0-0.1l0.6-2.6l-4.2,1.8l-0.1,0l-0.1,0l-5.4-2.4l-6.2,0.9l-2.3,2.8l-0.1,0.1h-0.1l-6.4,0l-0.1,17.1l2.3-0.3l0.2,0l0,0.2
		l0.4,3.4l3.2,3.4l0,0l0,0l1.1,3l3,2.1l0.2,0.2l-0.2,0.2l-2.3,2.7l1.8,2l0.1,0.1l0,0.1l-0.9,3.5l0,0.1l-0.1,0.1l-2.3,1.5l-0.2,4.1
		l5.3,0.2l0.1,0l0.1,0.1L361.9,372.1L361.9,372.1L361.9,372.1z M333.7,383.2l0.5,4.5l4.2,2.4l0.1,4.4l4.2,0.9l1.7,2.1l4.7-2.5
		l0.9,3.3l3,4.4l4.7,0.5l1.4-3.1l6.3-0.3l4.2-3.1l-0.7-4.6l0-0.1l0.1-0.1l2.7-1.8l-3.8-6.8l0,0l0-0.1l-0.4-4.4l-3.4,2.6l-0.2,0.1
		l-0.1-0.2l-3.1-3.9l-0.1-0.1l0-0.1l1.1-4.7l-1.7-2l-5.2-0.2l0,0.1l-0.2,0l-3.3,0.7l-0.1,0L351,371l-2.7-2.1l-0.2,2.2l0,0.1l0,0.1
		l-2.6,3.9l-0.1,0.1l-0.1,0l-4.8-0.4l-3.8,1.3l-1.5,2.1l2.4,1.2l0.1,0.1l0,0.1l0.7,2.8l0.1,0.3l-0.3,0L333.7,383.2L333.7,383.2
		L333.7,383.2z"/>
	<polygon class="st4" points="300.7,344.4 307,374.6 310.4,374.1 312.8,370.7 315,371.6 315.6,375.1 322.8,379.1 328.4,377 
		331.4,378.3 333.6,382.7 337.7,382.2 337.1,379.8 334.6,378.5 334.4,378.4 334.5,378.1 336.3,375.7 336.3,375.7 336.4,375.7 
		340.3,374.3 340.4,374.3 340.4,374.3 345.1,374.8 347.6,371 347.8,368.4 347.9,368 348.2,368.3 351.2,370.6 354.2,370 354.4,365.6 
		354.4,365.5 354.5,365.4 356.8,363.9 357.7,360.6 355.8,358.5 355.6,358.4 355.8,358.2 358,355.6 355.2,353.5 355.1,353.5 
		355.1,353.4 354,350.4 350.7,346.9 350.7,346.9 350.7,346.8 350.3,343.5 348,343.8 345.1,346.5 345,346.6 344.9,346.6 339.3,346 
		337.6,347.3 337.4,347.4 337.3,347.3 335.6,346 330.7,350.7 330.5,350.9 330.4,350.7 326.5,347 326.5,347 326.5,346.9 325.8,344.1 
		322.7,340 309.8,344.4 309.7,344.4 309.7,344.4 306.9,343.2 305.7,344.1 305.5,344.2 305.4,344.1 303.4,342.8 	"/>
	<polygon class="st4" points="290.9,331.5 297.6,331.7 294.9,334.6 300.5,343.9 303.2,342.3 303.4,342.2 303.5,342.3 305.5,343.6 
		306.8,342.7 306.9,342.6 307,342.7 309.8,343.9 322.7,339.4 322.9,339.4 323,339.5 326.2,343.9 326.3,343.9 326.3,344 326.9,346.7 
		330.5,350.2 335.4,345.5 335.5,345.3 335.7,345.5 337.4,346.8 339.1,345.6 339.1,345.5 339.2,345.5 344.8,346.1 347.7,343.5 
		347.8,326.2 345.5,326.2 342.4,328.9 342.2,329 342,328.8 340.6,327.1 340.6,327 340.6,326.9 341,320.4 331.6,320.1 331.5,320.1 
		331.4,320 329.7,316.8 324.8,317 324.6,317 324.6,316.8 323.6,313.3 320.6,309.3 304.1,301.5 304.1,306.9 304,307 300.9,308.8 
		301.8,312.3 301.9,312.6 301.6,312.6 297.6,312.4 294.4,313.7 292.6,316.9 293,326.4 293,326.4 293,326.5 	"/>
	<polygon class="st4" points="265.4,309.6 267.3,310.1 267.5,313.5 266.3,314.8 267.1,317.2 264.5,320.2 265,322.4 270.6,323.7 
		270.9,326.7 273.6,326.9 275.7,327.4 277.8,329.7 274.8,332.2 274.8,334.3 277.8,333.4 280.4,334.8 282.7,334.3 284.7,332.6 
		290.3,331.6 292.5,326.3 292.1,316.9 292.1,316.8 292.2,316.7 294.1,313.3 294.1,313.3 294.2,313.2 297.4,311.9 297.5,311.9 
		297.5,311.9 301.3,312.1 300.4,308.8 300.4,308.6 300.5,308.5 303.7,306.7 303.7,293.5 301.4,291.1 301.3,290.9 301.4,290.8 
		303.8,287.9 303.6,286.1 299.2,289.1 299.1,289.1 299,289.1 295.6,289 295.6,289 295.5,289 292.2,287.1 288.6,287.6 288.5,287.7 
		288.4,287.6 283.7,284.2 281.6,283.8 281.2,283.8 281.4,283.5 283,281.3 280.7,279 276.3,283.3 275.9,287.3 275.9,287.4 
		275.9,287.4 274.6,288.9 274.9,290.2 277.7,291.2 277.8,291.3 277.8,291.4 278.7,294 278.8,294 278.8,294.1 278.2,296.5 
		278.2,296.6 278.2,296.6 277.2,298.1 277.1,298.3 277,298.2 273.7,297.6 271.3,300.3 270.6,303.3 270.6,303.4 270.5,303.5 
		266.2,307.5 	"/>
	<polygon class="st4" points="356.6,275.1 353,272.6 346,276.7 345.8,276.7 345.7,276.7 339.8,272.3 331.3,272.2 331.2,272.2 
		331.2,272.1 325.6,268.4 321.6,267.3 317.9,270.1 315.2,278.9 315.1,279.1 314.9,279.1 311.6,278.7 309.1,280.3 308.6,283 
		308.6,283.1 308.5,283.2 304,285.8 304.3,287.9 304.3,288 304.2,288.1 301.9,290.9 304.1,293.2 304.1,293.3 304.1,301 320.8,308.9 
		320.9,308.9 320.9,309 324.1,313 324.1,313.1 324.1,313.1 325,316.5 329.8,316.3 330,316.3 330.1,316.5 331.8,319.6 341.3,319.9 
		341.5,319.9 341.5,320.1 341.1,326.8 342.2,328.3 345.3,325.8 345.4,325.7 348.3,325.7 348.3,325.7 354.5,325.7 356.9,323 
		356.9,322.9 357,322.9 363.4,322 363.4,322 363.5,322 368.9,324.4 373.2,322.5 373.4,318.1 373.4,318 373.5,317.9 378.1,314.5 
		378.6,312.4 374.7,311.1 374.6,311.1 374.6,311.1 371.8,308.2 371.7,308.2 371.7,308.1 371.2,304.3 371.2,304.2 371.3,304.1 
		376.3,299.8 376.5,297.3 373.2,296.9 373.1,296.9 373,296.8 369.4,289.2 356.8,287.3 356.6,287.2 356.6,283.4 356.6,283.4 
		358.3,281.3 	"/>
	<polygon class="st4" points="372.8,336.6 371.3,337.3 370.6,340 372.2,343.6 372.2,343.8 372.1,343.9 369.3,347.5 369.9,349.4 
		373.5,350.7 373.8,350.8 373.7,351 372.4,355 372.4,355 372.3,355 370,358 370.8,361.4 370.9,361.4 370.8,361.5 370.2,364.1 
		371.1,366.4 371.1,366.5 371,366.6 367.3,370.4 367.3,370.4 367.2,370.4 365,371.5 365,371.5 365,371.5 362.1,372.6 361,377.1 
		363.9,380.8 367.4,378.1 367.8,377.8 367.8,378 374.2,377.6 375.9,373.2 375.9,373 376.1,373 378.8,373.2 380.7,369.2 380.7,369.1 
		380.8,369.1 384.2,367.8 385.3,365.5 385.3,362.8 385.4,362.8 388.5,361.1 388.3,358.4 387,354.5 387,354.5 387,354.5 386.4,350.8 
		383.5,346.5 383.5,346.4 383.5,346.2 384.7,343.6 382.6,342.2 379,342.6 378.9,342.6 374.8,342.6 374.8,342.5 	"/>
	<polygon class="st4" points="366.8,142.9 369,145.8 370.6,145.1 370.1,141.1 368.5,140.3 	"/>
	<polygon class="st4" points="373,124.5 374.1,126 375.3,124.7 374.8,122.7 373.3,123.2 	"/>
	<polygon class="st4" points="415.5,53.2 420.4,54.1 419.3,50.4 415.9,50.5 	"/>
	<polygon class="st4" points="419.6,62.4 422.3,58.8 421.7,55.6 424.3,53.9 426.9,51.3 429.8,53.9 431.4,58.5 432.4,60.6 429.7,62 
		429.7,64.6 423,67.6 419.6,64.5 	"/>
	<polygon class="st4" points="417.2,66.3 422.3,68.3 421.6,70.7 419.2,72 415.8,69.7 415.2,67.4 	"/>
	<polygon class="st4" points="421.7,74.5 424,68.9 430.3,65.8 431.4,70.1 433.1,69.6 433.3,67.7 436.1,70.5 435.9,74.2 433.8,77.6 
		435.6,79.7 435.1,82.9 432.8,84.1 428.2,80.9 424,77.3 421.7,76.3 	"/>
	<polygon class="st4" points="438.1,77.7 437.5,85 434.8,90 435.8,93.9 440.4,90.2 445.2,89.9 447.7,87.3 448,81.5 445.3,78.1 
		443.1,80.3 441.8,79 442,75.5 	"/>
	<polygon class="st4" points="451.5,88.2 451.9,90.2 455.5,91 455.4,89.6 451.8,87.4 	"/>
	<polygon class="st4" points="424.3,102.9 426.2,104.3 427.6,103.5 426.6,101.4 	"/>
	<polygon class="st4" points="407.8,100.2 410.2,101.5 410.3,99.6 408.8,97.9 407.7,98.8 	"/>
	<polygon class="st4" points="422.4,108 423.3,109 424.4,107.9 423.1,106.6 	"/>
	<polygon class="st4" points="382.6,132.6 384.4,134.3 385.6,133.1 385.2,131.2 383.6,130.8 	"/>
	<polygon class="st4" points="387,134.8 388,135.5 388.7,134.2 387.5,132.9 	"/>
	<polygon class="st4" points="389.6,129.8 390.6,130.5 391.2,129.4 389.7,128.4 	"/>
	<polygon class="st4" points="391.4,127.1 392.6,128 393.7,126.5 391.9,125.2 391,125.9 	"/>
	<polygon class="st4" points="383.3,117.9 384.6,118.7 386.5,117.6 385.4,115.7 383.8,115.2 382.2,116.6 	"/>
	<polygon class="st4" points="387.3,111.3 386.9,112.4 387.9,113.8 388.9,112.7 389,111.4 	"/>
	<polygon class="st4" points="384.3,64.9 384,66.4 385.6,68 387.8,68.1 387.7,66.1 386.2,64.1 	"/>
	<polygon class="st4" points="394.1,53 396.2,53.7 398.5,53.1 397.2,50.1 395.5,48.8 394.3,49.9 394,51.8 	"/>
	<path class="st4" d="M455,364.8l-0.5-2.4l0-0.2l0.2-0.1l2.3-0.7l-1-3.5l-0.1-0.2l0.2-0.1l2.8-1l0.2-0.1l0.1,0.2l2.2,4.3l5.4-3.2
		l0.2-0.1l0.1,0.2l1.9,2.6l0,0l0,0l1.6,1.5l2.1-0.8l0,0h3.1l0.1,0.1l1.4,2.3l0.1,0.1l-0.1,0.1l-5.6,7.1l-0.1,0.2l-0.2-0.1l-3.4-2.4
		l-4.2,0.4l-0.1,0l-0.1,0l-2.5-1.5l0,0l-2.9-2.1l-3-0.3l-0.2,0L455,364.8L455,364.8L455,364.8z M478.6,244.5l-1.6,1.8l-0.1,0.1
		l-0.1,0l-3.8,0.8l-3.4,1.5l0.2,3.8l1,2.5l0,0.1l0,0.1l-1.9,4.3l1.9,3.1l0,0.1l0,0.1l0.4,4.6l0,0.1l0,0.1l-3,5.8l0,0.1l-0.1,0
		l-5,3.1l1.9,3.2l0.1,0.1l-0.1,0.1l-2.1,2.9l1.1,3.7l4.2,1.4l0.1,0l0,0.1l0.6,2.8l0,0.1l-0.1,0.1l-3.1,3.3l-0.2,2.3l2,0.5l0.1,0
		l0,0.1l1,3l0,0.1l-0.1,0.1l-2.3,2.3l-1,3.5l-0.1,0.3l-0.3-0.2l-4.4-2.6l-0.1,0l0-0.1l-2.1-4.5l-4,1.8l-0.6,3.8l0,0.1l-0.1,0.1
		l-8.9,9.7l0.4,4.5l0,0.2l-0.2,0.1l-2.4,1l-0.2,0.1l-0.1-0.2l-3.4-7.4l-2.3,3.1l-0.1,0.1l-0.1,0l-9.2,0.4l-3.6,6.7l4.1,6.4l0.1,0.1
		l0,0.1l-0.8,3.6l0,0.2l-0.2,0l-4,0.6l-2.3,4.4l-0.8,11.9l0,0.3l-0.3,0l-3.9-0.4l-2.8,1.3v2.3l6.7,6l10,7l4-0.3l0.2,0l0,0.2l0.2,0.7
		l2.6,0.1l4.6-3.3l0.2-0.1l0.1,0.2l2.9,4l8.8,7h4.4l0.1,0.1l3.3,4.3l0,0.1l0,0.1l0.4,3.3l4.6,0.9l0.2,0l0,0.1l0.6,2.4l4-1.3l0.8-2.8
		h-4.4l-0.1-0.1l-0.9-2l-0.1-0.2l0.2-0.1l2-1.2l0,0l0,0l2.7-0.4l5.5-3.8l2-3l0,0l0,0l4.1-3.7l0.9-2.7l0,0l0,0l2.4-4.1l0,0l2.9-4.5
		l2.5-6.9l0,0l1.9-5.5l-2-4.6l0-0.1l0-0.1l0.5-5l0-0.1l0-0.1l2.6-3.1l-3.1-2.6l-0.1-0.1l0-0.1l-0.5-2.9l0-0.3l0.3,0l5.3-0.7l0.6-3.1
		l0.1-0.3l0.3,0.1l2.8,1l4.9-1.6l1.3-3.2l0.1-0.2l0.2,0.1l2.5,1.3h2.6l0.1,0.1l1.8,2.4l10.5-2.8l1.2-4.5l0.1-0.2l0.2,0l2.1,0.3
		l2.6-3l0.4-0.4l0.1,0.6l0.3,3.2l6.4,1l3.8-2.6l0.2-4.9l-4-2.8l-0.1-0.1l0-0.1l-0.3-6.2l0-0.1l0.1-0.1l2.2-1.7l0.1,0l0.1,0l5.5-0.2
		l-5.1-11.6l-2.8-1.9l-4.8,2.2l-0.2,0.1l-0.1-0.3l-1.8-5.3l-7.7-3.1l-3.9,0.6l-6,12.9l0,0l0,0l-4,4.7l-0.2,0.2l-0.2-0.2l-2.9-2.9
		l-1.9,3.3l-0.1,0.1l-0.1,0l-5.5,0.2l-3.8,2.9l-0.2,0.1l-0.1-0.2l-3.6-3.8l-0.1-0.1l0-0.1l0.7-9.9l0,0l0,0l3.3-7.6l-4.2-1.3l-0.1,0
		l0-0.1l-2-4.5l0-0.1l0-0.1l1.5-6.3l-3.4-1.9l-0.1-0.1l0-0.1l0.2-6.2l-2.5-4.9l-2,1.4l-0.1,0.1l-0.1,0l-2.9-0.2l-0.2,0v-3.5l0.1-0.1
		l2.3-1.4L478.6,244.5L478.6,244.5L478.6,244.5z"/>
	<polygon class="st5" points="474.2,244.3 474,244.4 473.9,244.3 471.2,242.2 464.6,242.2 464.7,241.9 465.1,238.4 465.1,238.3 
		465.1,238.2 468.9,233.7 470,230.7 467.5,229 467.4,229 467.4,225.6 465.3,223.2 465.2,223.2 465.3,223 466.2,218.4 463.8,216.5 
		463.5,216.4 463.7,216.2 467.4,212.1 466.1,194.7 461.7,188.1 463.9,187 469.1,182.7 469.2,182.6 469.3,182.7 472.4,183 
		473.5,177.6 473.5,177.6 473.5,177.5 475,175.2 475.4,172.2 475.4,172.1 475.5,172 481.9,167 479.2,163.7 479.1,163.6 479.1,158.3 
		473.5,150.4 473.5,150.4 473.5,150.4 472.7,146.3 471,144.1 470.9,144 471,143.9 471.1,141.6 467.7,143.3 463.8,146.3 458.4,147.9 
		456.3,151.5 456.5,146.3 467.3,135.1 473.3,124.3 476.1,114.6 467.7,105.1 459.9,104.8 457.1,108.7 454,109.3 456.3,102.6 
		449.9,101.8 452,98.8 448.1,95.5 444.6,96.9 439,105.2 440.3,110.2 434.3,110.6 434.4,112.1 436.6,115.4 432.3,114.5 430.1,116.6 
		425.1,115.7 424.5,113.4 417.4,113.6 417.6,117.6 409.1,118.8 403.3,123.4 398.9,123.5 395.6,126.4 394.2,132.2 396.9,137.2 
		392.8,138.2 381.7,136.4 375.3,136.3 373.3,139.8 373.1,148.9 377.1,152.9 379.1,157.4 373.5,157.4 368.6,148.4 365.1,148.6 
		365.1,149.1 368.2,155.6 368.3,155.9 368,156 364.7,156.5 364,160.6 367,167.1 367.1,167.2 367.1,167.2 366.3,170.4 366.3,170.5 
		366.1,170.5 358.9,173.8 358,177.4 362.7,183.7 368,185 368.2,185 368.2,185.2 369.4,191.9 369.1,192.7 369.1,192.7 367.2,197.5 
		367.1,197.7 367,197.7 362.1,199 363.6,202.5 363.6,202.6 363.6,202.7 362,207.3 365.9,212.4 366,212.5 366,212.6 365,221.8 
		368.1,226.1 368.2,226.2 368.2,226.3 367,232.9 371.7,236.4 371.7,236.5 371.8,236.6 372.5,241.3 372.6,241.4 372.5,241.5 
		368.4,247.2 368,252.3 368,252.4 367.9,252.4 361.6,260.5 361.6,266.9 366.8,269.8 366.9,270 366.9,270.1 365.9,272.5 365.9,272.6 
		365.8,272.7 361.1,274.7 361.1,274.7 361.1,274.7 357.1,275.2 358.8,281.3 358.8,281.4 358.8,281.5 357.1,283.6 357.1,286.8 
		369.6,288.8 369.7,288.8 369.7,288.9 373.4,296.4 376.8,296.9 377,296.9 377,297.1 376.8,300 376.8,300.1 376.7,300.1 371.7,304.4 
		372.2,307.9 374.9,310.7 379,312 379.2,312 379.2,312.3 378.5,314.7 378.5,314.8 378.4,314.8 373.9,318.2 373.7,322.7 373.7,322.9 
		373.7,322.9 373.1,325.7 377,333.3 377,333.5 376.9,333.6 374.9,335.6 374.9,335.6 374.9,335.6 373.2,336.4 375.2,342.2 
		378.9,342.2 382.6,341.7 382.7,341.7 382.8,341.8 385.2,343.3 385.4,343.4 385.3,343.6 384,346.3 386.8,350.6 386.8,350.6 
		386.8,350.7 387.5,354.4 388.8,358.3 388.8,358.3 388.8,358.4 389,361.2 389,361.4 388.9,361.4 385.7,363.1 385.7,365.6 
		385.7,365.7 384.6,368.1 384.6,368.2 384.5,368.2 381.1,369.5 379.2,373.4 384.7,377.3 393.8,378.4 397.7,375.2 397.7,375.1 
		397.8,375.1 399.9,374.6 400,372.5 400,372.4 400.1,372.4 403.3,370.3 403.1,368.1 403,367.8 403.2,367.8 405.6,367.2 406.4,364 
		406.4,363.8 406.6,363.8 418.6,362.7 419.2,360 412.5,354 412.4,353.9 412.4,351.1 412.5,351 415.5,349.6 415.6,349.6 415.6,349.6 
		419.4,350 420.1,338.3 420.2,338.3 420.2,338.2 422.6,333.6 422.6,333.5 422.7,333.5 426.7,332.9 427.5,329.6 423.4,323.2 
		423.3,323 423.4,322.9 427.1,316 427.2,315.8 427.3,315.8 436.6,315.4 439.1,312.2 439.3,311.8 439.5,312.2 443,319.7 445,318.9 
		444.6,314.5 444.6,314.4 444.7,314.3 453.5,304.6 454.1,300.8 454.1,300.7 458.9,298.5 459,298.7 461.1,303.4 465.1,305.8 
		466.1,302.5 466.1,302.4 466.1,302.4 468.4,300.1 467.5,297.4 465.4,296.8 465.2,296.8 465.3,296.6 465.4,294 465.5,293.9 
		465.5,293.8 468.6,290.6 468.1,288 463.8,286.7 463.7,286.7 463.7,286.5 462.5,282.6 462.4,282.4 462.5,282.3 464.6,279.5 
		462.7,276.3 462.6,276.1 462.8,275.9 467.9,272.8 470.8,267.1 470.4,262.7 468.5,259.6 468.4,259.5 468.5,259.3 470.4,255.1 
		469.4,252.6 469.4,252.5 469.4,252.5 469.2,248.5 469.2,248.4 469.4,248.3 472.9,246.7 473,246.7 473,246.7 476.7,245.9 
		478.3,244.1 477,242.5 	"/>
	<polygon class="st5" points="455,362.5 455.4,364.5 458.2,364.7 458.3,364.7 458.4,364.8 458.4,364.8 458.5,364.8 458.5,364.8 
		461.4,367 463.8,368.5 467.9,368.1 468,368.1 468.1,368.1 468.1,368.1 468.2,368.2 471.4,370.4 476.8,363.6 475.5,361.6 
		472.8,361.6 470.8,362.3 470.6,362.4 470.5,362.5 470.4,362.4 470.3,362.3 468.7,360.8 468.7,360.8 468.7,360.8 468.6,360.8 
		468.6,360.7 468.6,360.7 466.9,358.3 461.7,361.4 461.4,361.5 461.2,361.6 461.1,361.4 461,361.2 458.9,357 456.5,357.9 
		457.5,361.2 457.5,361.5 457.6,361.7 457.4,361.8 457.2,361.8 	"/>
</g>
<g>
	<polygon class="st6" points="631,81.9 630.3,83.8 632,84.9 633.8,83.8 633.2,81.5 	"/>
	<polygon class="st6" points="542.1,107.7 547.2,108.4 547.4,110.9 545.4,111.5 543.1,110 	"/>
	<polygon class="st6" points="555.4,99.4 556.3,103.4 558.4,103.4 558.8,99.8 556.7,98.1 	"/>
	<polygon class="st6" points="560,102.8 560,107.4 565.2,106.3 570,103.8 568.4,100 565.2,99.6 562.8,99.1 561,101.7 	"/>
	<polygon class="st6" points="561.7,77.1 563.2,80.4 573.1,80.5 576,75.2 574.1,71.2 572,73.5 567.9,73.1 566.8,75 564.6,75 
		564.3,77.2 	"/>
	<polygon class="st6" points="557.8,60.6 557.2,63 559.2,63.5 559.9,61.4 	"/>
	<polygon class="st6" points="552.6,81.9 554.9,85.4 559.2,86.3 559.3,81.4 557.8,79 552.8,78.6 550.1,80.5 546.1,79.8 545.8,82.6 
		548.2,85.1 546.9,86.6 543,83.5 538.4,83.9 538.1,87.6 538.5,91.5 540.6,94.1 541.4,97.1 545.6,98.3 549.6,98 549.3,93.8 
		552.1,94.1 554.3,90.5 557,91 558.7,89.1 557,87.3 553.1,86.2 550,82.6 	"/>
	<polygon class="st6" points="533.2,91.1 533.9,94.1 536.5,97.2 538.2,96.5 536.2,92.9 	"/>
	<polygon class="st6" points="647.2,84.6 645.9,87.2 638.7,91.2 633.5,86.3 628.3,85.8 620.8,90.6 615.7,96.9 613.9,103.3 
		610.5,104.3 606.3,102.2 602.3,102.6 600.2,105.3 598.4,103.8 596.7,105.6 594.6,103.6 597.6,100.6 590.5,100.1 586.5,103.6 
		588.7,111.2 584.7,115.1 584.7,109.3 581.9,109.3 579.2,111.7 578.5,108.7 582.6,105.1 578.3,105.3 565.5,111.9 567.9,114.9 
		564.3,118.4 565.7,121 568.3,119.7 568.6,123.5 571.7,127.1 566.9,128.3 565.5,130.3 566.8,133.4 562.9,134.1 557.6,132.5 
		556.1,138.4 547.2,136.8 547.2,149.8 540.9,148.8 531.3,140.1 534.8,137.6 528.9,128.8 525.1,127 519.4,129 513,126.5 512.1,136.4 
		500.5,141.4 496,138.4 496.7,136 484.8,135.9 481.7,140.1 480.9,142.8 480.1,138.8 477.9,136.8 475.3,139.5 471.6,141.3 
		471.4,143.8 473.1,146.1 473.2,146.1 473.2,146.2 474,150.2 479.5,158.1 479.6,158.2 479.6,163.4 482.4,166.8 482.6,167 
		482.4,167.2 475.9,172.4 475.5,175.4 475.5,175.4 475.5,175.5 473.9,177.8 472.8,183.3 472.7,183.6 472.5,183.5 469.3,183.2 
		464.2,187.4 464.2,187.4 464.1,187.4 462.4,188.3 466.5,194.5 466.5,194.6 466.5,194.6 467.9,212.1 467.9,212.2 467.9,212.3 
		464.3,216.3 466.6,218.1 466.8,218.2 466.7,218.4 465.8,223 467.9,225.3 467.9,225.4 467.9,228.7 470.4,230.4 470.6,230.5 
		470.5,230.7 469.3,233.9 469.3,233.9 469.3,234 465.5,238.5 465.2,241.7 471.3,241.7 471.4,241.8 474,243.8 476.9,242 477.1,241.8 
		477.2,242 478.8,244 478.9,244.2 478.9,244.2 481,247.3 481.1,247.5 480.9,247.7 478.6,249.2 478.6,252 481.2,252.2 483.4,250.6 
		483.6,250.5 483.7,250.7 486.4,255.9 486.4,255.9 486.4,256 486.2,262.2 489.7,264.1 489.8,264.2 489.8,264.4 488.2,270.8 
		490.2,275.1 494.6,276.5 494.8,276.5 494.7,276.8 491.4,284.6 490.7,294.4 494.1,298 497.7,295.2 497.8,295.1 497.9,295.1 
		503.4,294.9 505.3,291.4 505.5,291.1 505.7,291.4 508.7,294.3 512.5,289.8 518.6,276.8 518.6,276.7 518.8,276.7 522.8,276 
		522.9,276 522.9,276 530.8,279.2 530.9,279.2 531,279.3 532.7,284.5 537.4,282.3 537.5,282.3 537.6,282.3 540.5,284.4 540.6,284.4 
		540.6,284.5 545.9,296.5 552.8,309.2 557.1,306.4 557.1,306.4 557.2,306.4 561.7,304.6 561.8,304.5 561.9,304.6 565.4,307.4 
		567.2,305.7 567.4,305.6 567.5,305.8 570.3,308.3 572.8,305.8 572.9,305.7 573,305.7 579.3,305.9 579.4,305.9 579.5,306 583.4,309 
		591.1,306.2 591.3,306.1 591.4,306.2 594,308.3 604.6,303.5 604.7,303.4 604.8,303.4 607.8,304.1 611.2,302.8 610.8,300.3 
		610.7,300.2 610.9,300.1 619.1,295.8 617.1,290 617,289.9 617.1,289.7 619.9,286.8 618.8,283.9 613.5,280.5 613.3,280.3 
		613.4,280.1 616.2,274.8 611,271.2 610.8,271.1 611,270.9 613.4,268.1 613.4,256.1 613.5,256 623.7,252.2 624.1,247.6 624.1,247.4 
		624.3,247.4 630.3,247 631.6,243.3 631.4,239.4 631.4,239.3 631.6,239.2 634.5,237.8 632.3,230.1 628.3,227.3 628.1,227.2 
		628.2,227 630.8,217.6 627.2,207.9 627.1,207.7 627.2,207.6 629.2,205 629.3,204.8 629.5,204.9 636.6,207.3 641.2,206.3 
		642.8,203.6 642.8,203.5 642.9,203.4 648.3,202.6 649.3,199.2 640.3,180.6 640.3,180.5 640.3,180.4 641.2,175.9 641.2,175.8 
		641.3,175.7 647.3,171.5 645.1,167.1 645,167 645.1,166.8 650.9,161.4 651,161.3 651.1,161.3 656.3,160.8 659.2,157.5 659.8,151.7 
		656.4,148.7 656.3,148.6 656.3,148.5 656.1,144.7 654,141.5 653.9,141.3 654,141.2 656.6,138.8 653.8,135.5 653.7,135.4 
		653.8,135.2 660.6,129 660.6,129 660.6,129 663.7,127.7 665.9,124.4 661.7,115.6 656.3,115.6 656.3,115.6 652.1,113.8 652,113.7 
		652,113.6 649.8,108 649.7,107.9 649.8,107.8 658.3,97.8 658.3,92.9 	"/>
	<polygon class="st6" points="660.4,19.6 666,26.2 667.2,25 668.8,17.3 670.6,13.7 668.6,11 663.4,11.4 660.4,16 	"/>
	<polygon class="st6" points="747.3,86.7 746,72.6 742.1,70.4 751.3,64 750,59.7 732.8,58.2 730.7,61 726,61.3 725.5,65 721.7,64.7 
		721.7,59.7 726,58.2 727.7,54.7 726.8,45.4 725.1,44.8 723,46.1 722.9,42.7 718.8,44.2 716.1,41.1 717.1,36 720.5,39 722.5,37.5 
		725.4,40.6 727.1,36.7 726.7,32 729.8,29.4 735.3,29.9 744.4,23 742.2,20.4 746.8,21 746.6,16.6 741.7,17.5 740.2,14.4 733.6,13.1 
		736.2,9.8 732.8,7.3 735.9,5.1 732,0 720.9,6.5 720.3,11.9 717.3,15.8 724.7,18.8 720.7,20.6 708.7,17.4 694.7,26.6 673.8,38 
		668.2,47.1 668.7,49.9 664.9,50.9 659.6,55.7 663.4,60.4 666.8,59.4 671.8,62.3 671.3,67.4 666.6,67.9 663.5,69.7 656.8,65.5 
		656.8,74 650,79.1 647.4,84.2 658.7,92.6 658.8,92.7 658.8,98 658.7,98.1 650.3,108 652.4,113.4 656.4,115.1 662,115.1 662,115.3 
		664.2,119.7 667.7,120.2 667.8,120.2 667.9,120.3 670.1,124.3 674.8,122.1 674.9,122 675,122.1 679.4,123.5 682.8,120.5 
		682.8,120.4 682.9,120.4 688.1,120 691.9,116 691.2,112.1 691.2,111.9 691.4,111.9 695.3,110.6 696.3,106.9 696.4,106.8 
		696.5,106.8 699.8,106.4 700.9,103.3 700.9,103.2 701.1,103.1 707.1,101.7 708.7,98.9 708.8,98.8 708.9,98.8 718,98.2 718.2,98.2 
		718.2,98.4 720.4,104.2 726.7,102.2 726.7,102.2 726.8,102.2 733.7,102.4 739.3,86.4 739.3,86.1 739.6,86.2 743,88 	"/>
	<polygon class="st6" points="790,158.4 792,160.4 796,157.2 794.3,156.8 	"/>
	<polygon class="st6" points="773,244.1 773.3,245.6 775.3,246.9 776.2,244.5 775.1,242.7 	"/>
	<polygon class="st6" points="779.2,241.2 778.9,242.6 781,243.5 782.2,242.2 780.1,240.3 	"/>
	<polygon class="st6" points="777.9,244.3 777.3,250.4 779.7,253.4 781.9,252.4 781.4,246.4 779.7,244.9 	"/>
	<polygon class="st6" points="781.2,257.7 780.9,260 781.9,262.2 784.7,260.9 785.1,259.5 	"/>
	<polygon class="st6" points="784.8,275.4 783.8,277.4 785.3,279.6 787.2,277.8 786,275.6 	"/>
	<polygon class="st6" points="785,286.6 786,288.3 787.5,287.8 787.8,285 785.9,284.6 	"/>
	<polygon class="st6" points="786.3,291.1 784.7,292.7 785.9,296 789.6,295 788.4,291.7 	"/>
	<polygon class="st6" points="783.9,304.8 782,306.6 782.1,310.4 782.2,314.4 782.3,316.2 784.2,316.2 785.8,311.7 785.4,307.3 	"/>
	<polygon class="st6" points="778.4,319.7 780.3,319.7 780.9,322.3 779.5,324.4 777.7,327 777.5,329.9 777,333.4 776.7,336.1 
		775.8,335.7 775.1,331 774.9,325.2 777.3,322.8 778.6,321.7 	"/>
	<polygon class="st6" points="771.5,350.7 772.5,350.2 772.8,343.5 774,342.1 774.2,340.4 773,339.6 771.1,340.5 770,341.3 
		771,344.3 770.6,348.1 	"/>
	<polygon class="st6" points="778.7,343.9 779.3,345.3 781.2,344.6 780.8,342.6 779.7,341.1 778.7,342.2 	"/>
	<polygon class="st6" points="741.9,144.9 740.3,149.5 746.1,156 746.9,146.6 743.8,145.2 	"/>
	<polygon class="st6" points="780,161.9 781.6,164.3 787.3,165.2 789.7,164 788.3,161.5 784,161 	"/>
	<polygon class="st6" points="674.9,213.4 678.4,211.1 680.7,209.1 684,208.3 682.9,201.7 688.7,199.8 693.1,195.9 697.2,195.8 
		694.2,200.1 697,202.6 701.2,197.9 702.3,190.4 706,189 709,185.1 705.9,182.7 703.2,186.1 700.3,183.4 699.5,170 697,162 
		697.8,156.1 702.7,149.2 705.4,149.1 706.7,145.2 712.3,152.9 716.2,152.2 716.5,149.3 715.6,143.5 714.6,139.3 710.8,137.2 
		710.7,137.1 710.7,137 710,133.3 707.5,131 703.6,131.4 703.4,131.4 703.4,131.2 701,125.1 697.7,124.4 697.6,124.4 697.5,124.3 
		692.2,116.5 688.4,120.5 688.3,120.5 688.2,120.5 683,120.9 679.6,123.9 679.5,124 679.4,124 674.9,122.5 670.1,124.9 669.9,125 
		669.8,124.8 667.5,120.7 664.4,120.2 666.4,124.4 666.5,124.5 666.4,124.6 664,128.1 664,128.1 663.9,128.1 660.9,129.4 
		654.3,135.4 657.1,138.7 657.3,138.9 657.1,139 654.5,141.4 656.6,144.5 656.6,144.6 656.6,144.6 656.8,148.4 660.2,151.4 
		660.3,151.5 660.3,151.6 659.7,157.6 659.7,157.7 659.6,157.7 656.6,161.2 656.5,161.3 656.4,161.3 651.2,161.8 645.6,167.1 
		647.9,171.5 648,171.6 647.8,171.8 641.7,176.1 640.8,180.4 649.6,198.8 653.7,196.1 653.8,196 653.9,196.1 663.2,199.1 
		663.3,199.2 663.3,199.3 664.4,204.4 664.4,204.5 664.3,204.6 662.1,208.6 663.8,211.9 667.5,209.2 667.5,209.2 672.5,209.2 
		672.6,209.3 	"/>
	<polygon class="st6" points="682,371.7 681.5,386.9 684.2,391.6 673.5,392.5 670,400.2 679.9,410.4 680.2,414.2 685.7,409 
		695.1,409.1 701.9,403.6 705.9,395.5 707.9,373.3 710.6,361.7 708.8,348.1 706.1,347.3 706,347.3 705.9,347.2 705.3,343.9 
		700.8,340.7 695.8,344.5 698.8,347.7 703.5,348.1 703.8,348.1 703.7,348.4 702.7,355.7 702.6,355.9 702.4,355.9 699.1,356 
		699.6,360.7 699.6,360.9 699.5,361 694.7,364.2 694.6,364.2 694.5,364.2 686.6,364.7 684.6,367.4 686.2,370.4 686.3,370.7 
		686,370.8 	"/>
	<polygon class="st6" points="677.6,355.2 681.1,360.9 679.8,365.1 681.9,371.2 685.6,370.4 684.1,367.4 684.1,367.3 684.2,367.2 
		686.3,364.4 686.4,364.3 686.5,364.3 694.4,363.7 699.1,360.6 698.6,355.8 698.5,355.6 698.8,355.6 702.2,355.4 703.2,348.5 
		698.7,348.2 698.6,348.2 698.5,348.1 695.3,344.6 695.1,344.4 695.3,344.2 700.7,340.2 700.8,340.1 701,340.2 705.6,343.6 
		705.7,343.6 705.7,343.7 706.4,346.9 708.8,347.6 710,332.2 708.3,327.4 700.7,312 698.2,309 696,298.1 694.5,294.5 694,293.9 
		688.3,291.6 686.3,289.3 688,285.9 683.9,284.2 675.1,282.6 668.3,286.1 666,296.4 663.1,292.8 659.8,297 657.1,289 651.4,292.5 
		646.5,291.7 646.8,287.2 653.1,271.5 654.6,255.8 656.4,248.3 654.9,242 657,236.4 656.1,230.4 669.2,217.5 673.4,218.2 
		673.8,216.7 672.6,214.9 674.5,213.6 672.2,209.7 667.7,209.7 663.9,212.5 663.6,212.7 663.5,212.4 661.7,208.7 661.6,208.6 
		661.7,208.5 663.9,204.5 662.9,199.5 653.9,196.6 649.8,199.3 648.8,202.9 648.7,203.1 648.6,203.1 643.1,203.9 641.6,206.7 
		641.5,206.8 641.4,206.8 636.7,207.8 636.6,207.8 636.5,207.8 629.5,205.4 627.7,207.8 631.3,217.6 631.3,217.6 631.3,217.7 
		628.7,227 632.6,229.8 632.7,229.8 632.7,229.9 635,237.9 635.1,238.1 634.9,238.2 631.9,239.6 632.1,243.3 632.1,243.3 
		632.1,243.4 630.7,247.3 630.6,247.4 630.5,247.4 624.5,247.8 624.1,252.4 624.1,252.5 624,252.6 613.9,256.4 613.9,268.2 
		613.8,268.3 611.5,271 616.6,274.5 616.8,274.6 616.7,274.8 613.9,280.2 619.1,283.5 619.2,283.6 619.2,283.7 620.4,286.7 
		620.5,286.9 620.4,287 617.6,290 619.6,295.6 627.8,291.3 627.9,291.2 628.1,291.4 630.8,294.3 630.9,294.4 630.8,294.6 
		626.8,303.3 627.2,307.5 627.2,307.6 627.1,307.7 624.1,309.4 624.3,312.9 631.2,312.9 631.2,313 634.3,317.6 637.7,317.4 
		643.2,312.3 644.1,308.6 644.1,308.4 648.4,308.4 649.7,305.8 649.8,305.7 650,305.7 652.9,306.1 653,306.2 653.1,306.3 
		655.8,314.6 655.8,314.8 655.7,314.9 653.9,316.7 653.9,316.7 653.8,316.7 647.1,317.8 648.8,321.3 648.9,321.5 648.8,321.6 
		646.1,324.5 645.4,328.2 645.4,328.3 645.4,328.4 641.5,332.9 643.1,335 643.3,335.2 643.1,335.3 640.5,338.8 640.5,343.1 
		647.6,346.6 647.6,346.7 647.6,346.7 653.3,354.6 656.9,351.2 657,351.2 657.1,351.2 664.7,351.3 664.8,351.3 664.8,351.3 
		668.2,354.1 678.4,350.6 678.8,350.5 678.7,350.9 	"/>
	<polygon class="st6" points="648.8,362.3 652.7,368.5 656.8,372.1 665.7,367.8 666.9,364.2 673.5,356.7 677.2,355.1 678.1,351.2 
		668.2,354.6 668.1,354.6 668,354.5 664.6,351.8 657.1,351.6 653.5,355.1 	"/>
	<polygon class="st6" points="577.7,339.1 586.6,334.6 593.4,336.9 601.6,335.6 613.6,347.5 628.5,362.9 634.4,360.5 638,362.2 
		640.7,360.9 645.6,362.5 648.3,362.1 653,355 647.3,347.1 640.1,343.5 640,343.4 640,338.7 640.1,338.6 642.6,335.2 641,333.1 
		640.8,332.9 641,332.8 645,328.1 645.6,324.3 645.7,324.3 645.7,324.2 648.3,321.4 646.6,317.7 646.4,317.4 646.7,317.4 
		653.6,316.3 655.3,314.6 652.7,306.6 650.1,306.2 648.8,308.7 648.7,308.9 644.5,308.9 643.6,312.5 643.6,312.6 643.6,312.6 
		637.9,317.8 637.9,317.9 637.8,317.9 634.2,318.1 634.1,318.1 634,318 630.9,313.4 623.8,313.4 623.8,313.1 623.6,309.3 
		623.6,309.2 623.7,309.1 626.7,307.4 626.3,303.3 626.3,303.2 626.3,303.1 630.3,294.5 627.8,291.8 611.3,300.4 611.7,303 
		611.7,303.2 611.5,303.2 608,304.6 607.9,304.6 607.8,304.6 604.7,303.9 594,308.8 593.9,308.9 593.8,308.8 591.2,306.7 
		583.4,309.5 583.3,309.6 583.2,309.5 579.2,306.4 573.1,306.2 570.5,308.8 570.3,309 570.1,308.8 567.4,306.3 565.5,307.9 
		565.4,308 565.2,307.9 561.7,305.1 557.4,306.8 553.2,309.6 558.5,313.1 558.7,313.3 558.6,313.5 557,315.7 559.4,318.2 
		563.9,315.7 564.1,315.6 564.2,315.8 566.3,319.6 569.8,318.8 570,318.7 570.1,319 570.6,325.7 574,327.7 574.3,327.8 574.1,328 
		572.2,330.8 	"/>
	<polygon class="st6" points="694.5,294.5 694.3,294.1 702,298.3 704.5,304.8 708.3,309.6 712.8,316.9 716.1,322.3 719.9,325.2 
		721.1,328.5 722.1,331.6 726.8,333.8 727.5,338.5 732.3,344.6 732.7,339.3 732,335.2 735.8,334.9 737.2,334.3 740.8,336.1 
		737.9,330.1 733.7,330.1 729.3,328.2 724.2,324.5 720.9,316.1 719.1,310.8 723,308.6 730.3,308.2 713.9,297.1 702.3,286.6 
		696.9,276.6 689.6,271.5 686.2,267.2 683.9,268.2 683.3,270.7 687.6,273.7 690,277.2 688.7,278.9 686.6,278.4 685.9,281.4 
		690.1,284.6 694.3,294.1 694,293.9 	"/>
	<polygon class="st6" points="433.1,377.6 444.2,382.1 454.4,384.4 456.5,392.5 463.9,396.4 469.1,396.3 476.6,391.9 482.3,393.7 
		488.3,393.3 489.9,396 493.3,396.2 494.5,392 494.5,391.9 494.6,391.8 497.9,390.1 494.4,386.2 494.2,386 494.4,385.9 497.8,383.1 
		496.5,379.1 496.4,378.8 503.3,378.8 507.4,375.4 507.5,375.4 507.6,375.4 511.2,375.9 518,366.9 518,366.8 518.1,366.8 
		522.5,366.5 523.8,364.4 523.8,364.3 523.9,364.3 527.6,362.8 530.4,359.3 530.7,355.6 527.8,353.6 527.7,353.5 527.7,349.7 
		527.8,349.6 534.2,344.7 536.4,339.6 536.4,339.5 536.5,339.5 542.2,337.5 541.9,333 538.4,329.8 534.5,329.2 534.4,329.1 
		534.3,329 531.1,319.3 529.1,317.5 528.9,317.3 529.1,317.1 531.1,314.3 530.8,311.5 528.4,314.2 528.3,314.3 528.2,314.3 
		526.2,314 525.1,318.4 525,318.5 524.9,318.5 514.1,321.5 513.9,321.5 513.8,321.4 512,318.9 509.5,318.9 509.5,318.9 507.1,317.6 
		505.9,320.6 505.8,320.7 505.7,320.8 500.6,322.5 500.5,322.5 500.4,322.5 497.8,321.5 497.2,324.5 497.1,324.7 497,324.7 
		491.7,325.4 492.2,327.9 495.4,330.6 495.6,330.8 495.4,331 492.7,334.2 492.2,339 494,343.1 494.2,342.2 495.3,335.6 495.3,335.6 
		495.3,335.5 497.1,332.5 497.1,332.3 497.3,332.3 499.6,332.6 499.7,332.6 499.8,332.8 500.2,335.3 500.2,335.4 500.2,335.4 
		499.1,341.4 499.5,347.2 500.4,350.4 500.5,350.4 500.4,350.5 499.2,353.6 499.2,353.6 499.2,353.7 497.3,355.4 496.7,356.5 
		497.4,358.5 497.4,358.6 497.4,358.7 496.6,360.7 496.5,360.8 496.4,360.8 494.4,361.3 494.3,363.5 494.3,363.6 494.3,363.6 
		491.7,367.8 491.7,367.8 491.6,367.9 487.8,369 485.3,372.4 485.2,372.5 485.1,372.5 482.3,372.3 481.5,376.6 481.5,376.7 
		481.5,376.7 479.3,379.1 479.3,379.2 479.2,379.2 472.4,382.2 471.5,385.3 471.5,385.4 471.3,385.5 466.9,386.9 466.7,387 
		466.6,386.7 466,384.2 461.4,383.3 461.2,383.3 461.2,383.1 460.8,379.7 457.6,375.6 453.2,375.6 453.1,375.5 444.2,368.5 
		444.2,368.5 444.2,368.4 441.4,364.6 436.9,367.8 436.8,367.9 436.7,367.9 434.2,367.8 434.3,368.4 434.4,368.5 434.3,368.6 
		432.9,370 433.4,372 433.4,372.1 433.3,372.2 431.4,374.3 	"/>
	<path class="st6" d="M523.3,380.9l1.2-3.1l0.1-0.1l0.1-0.1l0.1,0l0.1,0l6.8-0.8l1.9-4l0.1-0.3l0.1-0.3l0.2,0.2l0.2,0.2l1.5,1.4
		l1.6-3.8l0-0.1l0.1-0.1l0.1,0l0.1,0l0,0l3.4-0.7v0l0.1,0l0.1,0l0.1,0.1l0.1,0.1v0l4.1,2.6l0.1,0.1l0.1,0.1l0,0.2l0,0.2l0,0
		l-0.5,2.7l0,0.2l0,0.2l-0.2,0l-0.2,0l-2,0.5l3.4,3.1h0l0.3,0.2l0.3,0.2l-0.3,0.2l-0.3,0.2l-14.2,6.8l0,0l-0.1,0.1l-0.1,0.1
		l-0.1-0.1l-0.1-0.1l-8.2-5.1l-0.2-0.1l-0.2-0.1l0.1-0.2L523.3,380.9L523.3,380.9L523.3,380.9z M493.8,396.2l2.2,0.1l2.2,4.2
		l17.1,1.6l11.5-6.9l3.7-0.1l1.2-3.8l5.6-5.2l7.8-0.4l2.3,2.2l3.3-3l13.8,2.2l2-5.4l4.7-3.3l-2-4.8l2.1-13.1l3.5-3.5l-2.4-6.3
		l-5-0.5l3.5-6.5l6.2-4.3l-5.6-8.4l-0.1-0.1l0.1-0.1l1.9-2.7l-3.4-1.9l-0.1-0.1l0-0.1l-0.5-6.6l-3.3,0.8l-0.2,0L566,320l-2.1-3.7
		l-4.4,2.5l-0.2,0.1l-0.1-0.1l-2.7-2.7l-0.1-0.1l0.1-0.2l1.6-2.2l-5.4-3.6l-0.1,0l0-0.1l-6.9-12.9L540,297l-2.1,1.6l0.3,5.9l4,2.8
		l0.1,0.1l0,0.1l-0.2,5.1l0,0.1l-0.1,0.1l-3.9,2.7l-0.1,0.1l-0.1,0l-6.5-1l-1.8,2.6l1.9,1.7l0,0l0,0.1l3.2,9.6l3.8,0.7l0.1,0l0.1,0
		l3.6,3.2l0.1,0.1l0,0.1l0.3,4.8l0,0.2l-0.2,0.1l-5.7,2l-2.2,5l0,0.1l0,0l-6.4,4.9v3.3l3,2l0.1,0.1l0,0.1l-0.3,3.9l0,0.1l0,0.1
		l-2.9,3.6l0,0l-0.1,0l-3.7,1.5l-1.3,2.2l-0.1,0.1l-0.1,0l-4.3,0.3l-6.8,9l-0.1,0.1l-0.1,0l-3.7-0.5l-4,3.3l-0.1,0.1h-6.4l1.3,3.8
		l0.1,0.2l-0.1,0.1l-3.4,2.7l3.6,3.9l0.2,0.2l-0.3,0.1l-3.5,1.8L493.8,396.2L493.8,396.2L493.8,396.2z"/>
	<polygon class="st7" points="525,378 523.8,381.1 532,386.2 546.2,379.4 546.2,379.4 546.2,379.4 542.4,375.9 542.1,375.6 
		542.5,375.5 545,374.9 545.5,372.2 541.4,369.6 538,370.3 536.2,374.5 536.1,374.8 535.9,374.5 534.1,372.9 532.1,377 532,377.2 
		531.9,377.2 	"/>
	<polygon class="st7" points="780.1,238.4 779,225.3 777.6,219.3 773.3,215 773.7,208.6 775.9,206.8 768.4,198.1 768.6,192.1 
		771.7,188.7 770.9,185.4 764.7,183.5 758.3,172.2 759.8,171.1 761.8,173.9 764.9,171.9 760.1,167.3 757.5,168.8 753.3,166.1 
		753.2,166.2 751.1,161.1 746.8,161.1 746.3,164.1 743.5,163.8 734.6,146.1 735.2,140.5 738.7,139.7 736.1,129.2 741.7,133.7 
		741.8,121.1 746.3,116.6 752.9,116.4 749.1,107.2 747.3,87.2 743,88.5 742.9,88.5 742.8,88.5 739.6,86.8 734.1,102.7 734,102.9 
		733.8,102.9 726.8,102.7 720.3,104.7 720.1,104.8 720,104.5 717.9,98.7 709.1,99.2 707.5,102 707.5,102.1 707.3,102.2 701.3,103.6 
		700.2,106.7 700.2,106.9 700,106.9 696.7,107.2 695.7,110.9 695.7,111 695.5,111.1 691.7,112.3 692.4,116 697.9,123.9 701.3,124.6 
		701.4,124.7 701.4,124.8 703.8,130.9 707.6,130.5 707.7,130.5 707.8,130.6 710.4,133 710.4,133 710.4,133.1 711.2,136.8 
		714.7,138.8 717.1,136.5 710.5,128.6 712.1,123.4 718.4,121.1 715.1,126.2 715.8,130.1 720.9,133.7 723.3,133.8 723.1,137.4 
		725.4,138 723.3,148.4 725.6,152.3 726.4,164.5 728.2,172.3 730.7,180.1 727.8,183.3 728.8,186.3 727.2,188.4 731.2,193.1 
		731.9,200.5 737.4,206.8 737.4,206.8 744,214.2 	"/>
</g>
<g>
	<polygon class="st8" points="140.5,276.9 140.3,279.9 141.9,283.6 143.7,283.3 145,282.1 147.8,283.4 147.6,285.2 146.9,286.9 
		147.8,288 150.4,288.9 151.4,292.5 152.5,297.1 151.3,300 152.5,302.3 155.5,300.5 156.8,300.9 157.7,302.8 158.3,306.2 
		160.3,307.7 162.6,306.1 164.9,306.2 169,308.1 168.9,310 169.8,311.6 171.9,312 173.6,310.1 175.4,312 177.8,313.4 177.3,317.1 
		177.8,319.2 180.1,321.8 182.1,322.4 184.1,321.2 185.6,321.8 186.8,324.1 191.6,325.7 193.7,324.1 195.8,321.1 192.1,313 
		191.8,312.8 191.7,312.8 191.7,312.7 190.9,310.3 190.8,310.1 191,310 193,308.4 193.4,307 192.5,304.8 187.3,303.2 184.9,303.9 
		183.6,306.8 183.6,307 183.4,307 180.3,306.7 180.2,306.6 180.1,306.6 177.3,303.7 172,302.5 171.9,302.5 171.8,302.4 170.7,300.2 
		170.6,300 170.7,299.9 172.8,297.7 171.5,296.4 171.4,296.3 171.4,296.2 171.5,294.8 171.5,294.6 171.7,294.6 173.6,294 
		173.8,290.8 171.1,291 169.8,291.8 169.4,292.1 169.4,291.7 168.9,287.9 168.9,287.7 169.1,287.6 170.3,287.1 170.4,284.9 
		169.2,283.5 169.1,283.4 169.1,283.3 169.3,278 167.8,275.9 167.8,275.9 167.8,268.7 166.3,265.5 166.3,265.5 166.3,265.4 
		167,262.5 165.1,260.4 165,260.7 165,260.8 164.1,264 164,264 164,264 163.3,265.4 163.3,265.5 163.2,265.5 157.6,268.6 
		156.3,271.2 156.2,271.3 156.1,271.3 152.3,272.5 152.3,272.5 152.3,272.5 150.3,272.8 146.4,276.2 146.3,276.2 146.3,276.3 
		140.6,276.7 	"/>
	<polygon class="st8" points="113,274.6 115.5,277 115.3,279.6 114.6,281.7 116,284.3 118.9,283 120.4,280.1 122.1,278.3 
		126.1,279.1 128.3,277.2 129.9,277.1 131.1,278 135.1,277.8 138.1,277 140.1,276.5 140.2,276.4 140.3,274.6 140.1,273.1 
		138.1,270.2 138.1,270.2 138.1,270.1 138.4,266.6 136.1,263.8 136.1,263.7 136.1,263.7 135.2,260.4 135.2,260.4 135.2,260.4 
		135.1,258.5 133.2,257.9 133.2,257.9 133.2,257.9 127.7,254.9 127.5,254.8 127.5,254.7 127.5,251.7 122,250.8 122,250.7 122,250.7 
		116.2,247.4 116.1,247.3 116.1,245.3 115.3,243.9 112.5,243.6 112.4,243.6 112.3,243.5 108.2,237 102.8,239.8 102.7,239.8 
		102.7,239.8 99.5,240.4 99.3,244.4 99.3,244.5 99.2,244.5 98.3,245.3 98.6,248.4 100.2,250.6 102.7,251.1 102.8,251.1 102.8,251.2 
		107.2,255.4 107.3,255.5 107.3,258.9 107.2,259 105.3,261.2 105.2,263.3 106.7,263.4 108.5,262.6 108.9,262.5 108.9,262.8 
		109,266.4 110.1,268 112.7,268.5 112.9,268.5 112.9,268.7 	"/>
	<polygon class="st8" points="135.6,258.5 135.7,260.3 136.5,263.5 138.8,266.4 138.9,266.4 138.9,266.5 138.6,270 140.5,272.9 
		140.6,272.9 140.6,273 140.8,274.6 140.8,274.6 140.8,274.6 140.7,276.2 146.1,275.8 150,272.4 150.1,272.3 150.2,272.3 152.2,272 
		155.9,270.9 157.2,268.3 157.3,268.3 157.3,268.2 162.9,265.1 163.6,263.8 164.6,260.6 164.9,259.2 162.1,255.2 161,254.1 
		159.7,255 159.7,255 159.6,255 158.5,255.2 158.3,255.3 158.2,255.1 156,251.9 155.3,252.4 152.5,255.4 152.5,255.4 152.4,255.4 
		150.8,256.4 150.7,256.5 150.6,256.4 148.5,255.9 148.4,255.9 148.4,255.9 145.2,253 143,251.4 141,251.7 137.7,252.1 136.4,254 
		136.3,254.8 137.4,255.3 137.5,255.4 137.5,255.6 137.1,257.7 137.1,257.9 137,257.9 	"/>
	<polygon class="st8" points="127.9,251.6 128,254.6 133.4,257.5 135.3,258.1 136.7,257.5 137,255.7 136,255.1 135.8,255.1 
		135.8,254.9 135.9,253.9 135.9,253.8 135.9,253.7 137.4,251.7 137.4,251.6 137.5,251.6 141,251.2 141,251.2 143.1,250.9 
		143.2,250.9 143.2,251 145.5,252.6 145.5,252.6 145.5,252.7 148.7,255.5 150.6,255.9 152.2,255 155,252.1 155,252.1 155,252 
		155.7,251.5 153.6,248.9 153.5,248.8 153.6,248.6 154.5,247.6 154.3,245.4 150.1,245.1 150,245.1 149.9,245 147.5,241.6 
		144.5,241.4 144.4,241.4 144.3,241.3 143.2,238.5 139.9,234.6 139.4,235.1 138.9,238.1 138.8,238.1 138.8,238.2 138.1,239.3 
		138,239.4 137.8,239.4 132.7,237.6 132.7,243 132.7,243 131.6,244.3 132.5,246.1 132.6,246.2 132.6,246.3 132.1,247.6 132.1,247.7 
		132.1,247.7 	"/>
	<polygon class="st8" points="116.9,223.3 115.5,223.4 115.4,223.4 115.4,223.3 113.8,222.8 111,226.1 110.4,229.6 110.3,235 
		110.3,235.1 110.2,235.2 109.4,236.4 109.3,236.4 109.3,236.5 108.6,236.8 112.7,243.1 115.5,243.4 115.6,243.4 115.6,243.5 
		116.5,245.1 116.6,245.1 116.6,247 122.2,250.3 127.6,251.2 131.7,247.4 132.1,246.3 131.1,244.3 131,244.2 131.1,244.1 
		132.2,242.8 132.2,237.5 130.3,237.4 130.2,237.4 130.1,237.2 128.7,234.3 125.6,233.7 124.6,234.6 124.3,234.8 124.2,234.6 
		122.3,231.3 122.2,231.3 122.2,231.2 121.9,227.6 118.5,227.6 118.4,227.5 	"/>
	<polygon class="st8" points="124.9,216.9 122.3,218.7 117.4,223.1 118.8,227.2 122.4,227.2 122.4,227.4 122.7,231.1 124.5,234.1 
		125.4,233.3 125.5,233.2 125.6,233.2 128.9,233.8 129.1,233.8 129.1,234 130.5,236.9 132.2,237 132.2,236.9 132.6,237 137.8,238.9 
		138.4,237.9 139,235 139,234.9 139,234.9 139.7,234.1 140.8,232.3 140.8,231 139.4,230.2 139.3,230.1 139.3,230 139.1,228.5 
		138.2,228 137.7,228.7 137.6,228.8 137.5,228.8 134,229 133.6,230 133.5,230.1 133.3,230.1 131.5,229.8 131.4,229.8 131.4,229.7 
		129.5,226.2 129.5,226.1 129.5,226.1 129,220.9 	"/>
	<polygon class="st8" points="141.3,231 141.3,232.4 141.2,232.4 141.2,232.5 140.2,234.2 143.6,238.2 143.6,238.3 143.6,238.3 
		144.1,239.5 146.6,238.8 146.6,238.8 146.7,238.8 150,238.3 150.3,235.7 150.4,235.6 150.5,235.6 152.2,234.6 152.2,234.6 
		152.2,234.6 155.7,233.7 156,230.9 155.1,225.8 148.6,223.7 144.8,224.7 144.5,228.6 144.5,228.7 144.4,228.8 	"/>
	<polygon class="st8" points="123.6,212 124.5,214.6 124.5,214.6 125.2,216.4 129.4,220.7 129.4,220.7 129.4,220.8 130,226 
		131.7,229.4 133.2,229.6 133.6,228.7 133.7,228.5 133.8,228.5 137.4,228.4 137.9,227.5 138,227.3 138.2,227.4 139.4,228.1 
		139.5,228.1 139.5,228.3 139.7,229.8 141.1,230.6 144,228.5 144.4,224.5 144.4,224.4 144.5,224.3 148.3,223.3 148.5,217.6 
		148.5,217.4 148.7,217.4 152.2,217.2 154,215.7 154.1,215.6 154.3,215.7 158,218 160.9,214 161,213.8 161.2,213.9 164.7,216.4 
		167.1,215.3 168.2,214.1 166.1,211.4 161.9,207.1 159.5,206.1 159.4,206 159.4,205.9 158.6,203.8 156,203.7 155,204.4 154.9,204.5 
		154.8,204.5 145.9,204.4 143.9,205.6 143.7,205.6 143.6,205.5 142.4,204.4 139.7,204.6 138.6,206.2 138.5,206.3 138.4,206.3 
		136.6,206.7 131.6,209.7 131.5,209.8 131.4,209.8 127,209.9 	"/>
	<polygon class="st8" points="157.8,218.5 154.2,216.2 152.4,217.6 152.3,217.7 152.3,217.7 149,217.8 148.8,223.3 155.4,225.4 
		155.5,225.4 155.5,225.6 156.5,230.8 156.5,230.8 156.5,230.9 156.2,233.5 157.9,232.8 158,232.8 158,232.8 163.5,232.1 
		163.5,232.1 163.6,232.1 167.5,233.3 167.6,233.3 167.6,233.4 168.8,235.4 170.8,233.6 170.7,229.2 169.8,227.1 167.1,224.1 
		160.3,222.9 160.2,222.9 160.2,222.9 158.6,221.6 158.5,221.5 158.5,221.5 	"/>
	<polygon class="st8" points="170.8,234.2 168.9,236 168.7,236.2 168.6,235.9 167.2,233.7 163.5,232.5 158.1,233.3 156.1,234.1 
		156.1,234.1 156,234.1 152.4,235 150.8,235.9 150.4,238.6 150.4,238.8 150.2,238.8 146.7,239.2 144.3,239.9 144.7,240.9 
		147.7,241.1 147.8,241.1 147.9,241.2 150.3,244.6 154.6,244.9 154.8,244.9 154.8,245.1 155,247.7 155,247.7 155,247.8 154.1,248.8 
		156.1,251.2 156.1,251.2 156.2,251.4 158.5,254.7 159.5,254.5 160.8,253.6 161,253.5 161.1,253.6 162.5,254.8 162.5,254.8 
		162.5,254.9 165.4,259 165.4,259.1 165.4,259.2 165.2,259.8 167.4,262.3 167.5,262.4 167.5,262.5 166.8,265.4 168.2,268.4 
		168.8,268.4 169.6,266.5 169.6,266.5 170.7,264.1 170.8,264 170.9,264 172.7,264 172.8,264 172.9,264.1 175.3,265.6 175.8,264.8 
		175.4,262.1 173.7,260.4 173.6,260.3 173.6,260.2 174,257.6 174.1,257.3 174.3,257.3 178.7,257.9 182.3,256.7 182.8,253.8 
		181.5,253.6 181.4,253.5 181.4,253.5 180.5,252.5 180.4,252.3 180.6,252.1 182.5,250.7 182.6,250.1 180.9,249.9 180.8,249.9 
		180.7,249.7 180.5,248.6 180.5,248.6 180.5,248.5 181.5,246.8 180.9,246.3 177.7,248 177.6,248.1 177.5,248.1 173.7,247.3 
		173.6,247.3 173.5,247.2 171.9,244.6 171.9,244.6 171.9,244.6 170.9,241.4 170.9,241.4 170.9,241.4 	"/>
	<polygon class="st8" points="171.9,242.9 172.4,244.4 173.9,246.9 177.5,247.6 180.8,245.8 180.9,245.7 181,245.8 181.9,246.5 
		182.1,246.6 182,246.8 181,248.6 181.2,249.4 182.9,249.7 183.1,249.7 183.1,249.9 183,250.9 182.9,251 182.9,251.1 181.1,252.4 
		181.7,253.1 183.1,253.3 185.4,253.3 187.7,251.2 187.7,246 187.7,245.7 188,245.8 190.1,245.9 192.3,243.5 193.6,240 193.6,239.9 
		193.7,239.9 195.8,237.6 198.2,231.4 197,230.4 196.9,230.4 196.9,230.4 195.5,228.8 193.6,229.1 193.5,229.1 193.4,229 
		190.8,226.7 186.9,226.5 186.8,227.9 186.8,227.9 186.6,229.8 186.6,229.9 186.5,230 183.7,232.3 183.6,232.4 183.5,232.4 
		181.2,231.3 179.5,231.2 177.7,237.6 177.7,237.8 177.5,237.8 173.7,238.4 	"/>
	<polygon class="st8" points="188,251.6 185.6,253.7 185.6,253.8 183.3,253.8 182.8,256.9 182.8,257.1 182.6,257.1 178.8,258.3 
		178.8,258.4 178.7,258.4 174.5,257.9 174.1,260.2 175.8,261.8 175.9,261.9 175.9,262 176.3,264.8 176.3,264.9 176.3,265 175.5,266 
		175.4,266.2 175.2,266.1 172.7,264.5 171.1,264.5 170.1,266.7 170.1,266.7 169.2,268.7 169.1,268.9 168.3,268.9 168.3,275.7 
		169.7,277.8 169.8,277.8 169.8,277.9 169.6,283.2 170.9,284.6 170.9,284.7 170.9,284.8 170.8,287.3 170.8,287.5 170.6,287.5 
		169.4,288 169.8,291.2 170.9,290.5 170.9,290.5 171,290.5 174,290.3 174.3,290.3 174.3,290.6 174,294.2 174,294.4 173.9,294.5 
		172,295 171.9,296.1 173.3,297.6 173.5,297.7 173.3,297.9 171.2,300.1 172.2,302.1 177.4,303.3 177.5,303.3 177.6,303.3 
		180.4,306.2 183.2,306.5 184.5,303.6 184.5,303.5 184.6,303.4 187.1,302.8 187.4,300.6 187.7,298.3 187.8,298.1 187.9,298.1 
		191,297.4 191.4,294.9 191.4,294.8 191.4,294.8 194,290.4 194,290.3 194.1,290.3 198.4,287.8 198.6,287.8 198.7,287.8 200.8,288.9 
		201.9,288.9 202.7,286.2 202.7,286 202.8,286 205,285.3 206.2,284.4 204.5,282.6 203.5,283.1 201.9,283.9 201.9,284 201.8,283.9 
		194.8,281.7 194.8,281.6 194.8,281.6 193.2,280.3 193.1,280.3 193.1,280.2 191.3,276.1 191.2,276 191.2,275.9 192.1,273.5 
		192.1,273.4 192.2,273.4 195.5,271.4 195.5,271.3 195.6,271.4 197.4,271.5 197.5,271.5 197.6,271.6 199.1,273.5 199.1,273.6 
		199.1,273.7 199.2,276.8 200.5,277.9 202.2,277.1 202.2,277.1 202.3,277.1 203.9,277.2 204,277.2 204,277.3 205.1,278 205.1,278 
		205.1,278.1 207.6,280.4 208.7,279.8 209.5,278.2 208,276.2 208,276.1 208,276.1 207.8,274.5 207.8,274.4 207.8,274.3 209.4,271.4 
		209.7,269 208.4,268.8 208.4,268.8 208.4,268.8 203.9,266.8 203.8,266.8 203.8,266.8 201.9,265.2 201.9,265.2 201.8,265.1 
		201.1,263 199.3,263.5 199.1,263.5 199,263.4 198.2,262.2 198.2,262.2 198.2,262.1 197.9,260.1 197.9,260.1 197.6,258.9 
		195.5,258.4 195.4,258.4 195.3,258.2 195.1,255.5 190.3,255.3 190.1,255.3 190.1,251.5 	"/>
	<polygon class="st8" points="202.8,210.3 199.6,211.7 199.5,211.8 199.4,211.7 190.3,208.2 187.2,211.7 187,211.9 186.8,211.7 
		185.4,210.5 185.3,210.5 185.3,204.9 184.5,203.1 184.5,202.9 184.6,202.8 191.9,194.6 191.6,191.1 189.5,188.5 186.6,189 
		182.5,191.7 182.4,191.7 182.3,191.7 178.6,191.6 178.1,192.9 180.7,195.4 180.9,195.5 180.7,195.7 177.5,199 177.5,199 
		175.9,200.8 175.7,205.8 175.7,206.1 175.5,206 167.6,205.9 164.5,209.1 166.5,211.1 166.5,211.1 166.5,211.1 168.7,213.9 
		168.8,214.1 168.7,214.3 167.4,215.7 167.4,215.7 167.4,215.8 164.8,216.9 164.6,217 164.5,216.9 161.1,214.4 158.3,218.4 
		158.9,221.3 160.4,222.5 167.3,223.7 167.4,223.7 167.4,223.8 170.2,226.8 170.2,226.8 170.2,226.9 171.1,229.1 171.2,229.1 
		171.2,229.2 171.3,233.7 171.3,233.8 171.3,233.8 171.4,241.3 171.7,242.2 173.3,238.1 173.3,237.9 173.5,237.9 177.3,237.3 
		179.1,230.9 179.1,230.7 179.3,230.7 181.3,230.8 181.3,230.8 181.4,230.9 183.5,231.9 186.1,229.7 186.4,227.9 186.4,226.3 
		186.4,226 186.7,226 191,226.2 191,226.2 191.1,226.3 193.6,228.6 195.5,228.2 195.7,228.2 195.8,228.3 197.3,230.1 198.5,231 
		200.5,228.7 202,226.6 200.2,225.1 200.2,225 200.2,222.2 200.3,222.1 207.1,219.2 206.8,215.6 	"/>
	<polygon class="st9" points="237.8,219.4 237.8,219.4 237.7,219.4 230.3,213.3 227.6,214.7 227.5,214.8 227.5,214.8 220.1,213.9 
		220.2,213.9 215.3,211.3 215.2,211.3 215.2,211.3 210.7,206.2 204.9,205.7 203.2,209.9 207.3,215.4 207.3,215.4 207.3,215.5 
		207.6,219.4 207.6,219.6 207.4,219.6 200.6,222.5 200.6,224.8 202.5,226.4 202.7,226.5 200.5,229.4 200.5,229.4 198.7,231.4 
		196.2,237.9 196.2,237.9 196.1,237.9 194,240.2 192.7,243.7 192.7,243.8 192.6,243.8 190.4,246.3 190.3,246.4 190.2,246.4 
		188.2,246.3 188.1,251.1 190.3,251 190.6,251 190.6,254.8 195.4,255.1 195.6,255.1 195.6,255.3 195.8,258 197.9,258.5 198,258.5 
		198,258.7 198.3,260 198.3,260.1 198.6,262 199.3,262.9 201.2,262.5 205.2,257.7 205.3,257.6 205.4,257.6 209.9,257.1 212.8,252.5 
		213,252.3 213.2,252.5 215.3,254.8 217.1,253.6 217.9,250.4 217.9,250.2 218.1,250.2 223.1,250 224.5,248.3 224.9,244.8 
		224.9,244.7 224.9,244.6 227.2,242 225.5,238.8 225.5,238.8 225.5,238.7 225.6,236.1 225.6,236 225.8,235.9 231.2,233.5 
		237.4,227.4 241.6,221.8 242.3,220 	"/>
</g>
<g>
	<polygon class="st10" points="70.9,244.2 70.9,245.5 66.8,245.4 65.3,247.7 63.2,248 60.7,252.4 56.5,254 53.5,249.6 46.5,248.7 
		43.2,252.1 50.3,256.2 48.2,257.7 44.5,255.5 42.4,257.1 43.7,259.6 46.4,259.6 46.4,259.7 49.5,263.5 49.6,263.6 49.5,263.7 
		47.3,268.1 50.2,271.8 50.3,271.9 50.3,272.1 49.6,273.5 49.4,276.4 51.1,278.6 52.8,276.7 52.9,276.6 53,276.6 55.7,277.6 
		56.7,276 56.8,275.8 57,275.9 59.2,276.8 59.4,276.9 59.4,280.3 61.9,281.5 62.1,281.6 62.1,284.9 63.4,287.1 66.6,286.8 
		67.6,284.9 67.7,284.8 73,284.8 76.1,281.3 75.9,279.6 73,279.3 72.8,279.3 72.8,279 72.7,276.6 70,272.8 69.9,272.7 69.9,272.6 
		71.4,267.5 69.6,264.8 69.5,264.6 69.7,264.5 73.5,262.3 73.7,262.2 73.8,262.4 75.2,263.7 77.8,263.6 79.4,260.5 78.8,255.3 
		78.8,255.2 78.9,255.1 83,252.4 82.3,246.1 79.1,245.9 76.8,247.5 76.7,247.6 76.6,247.5 74,245.9 	"/>
	<polygon class="st10" points="98.2,282.9 102.6,281.4 103.3,278 107,275.9 111.1,274.9 112.5,274.5 112.4,268.9 109.9,268.4 
		109.8,268.4 109.8,268.3 108.6,266.6 108.5,266.5 108.5,266.4 108.4,263.2 106.9,263.9 106.8,263.9 106.8,263.9 104.9,263.7 
		104.6,263.7 104.7,263.5 104.8,261.1 104.8,261 104.9,260.9 106.8,258.7 106.8,255.7 102.5,251.6 100,251 100,251 99.9,251 
		98.2,248.7 98.1,248.6 98.1,248.6 97.9,245.4 94.3,244.1 94.2,244.1 94.1,244 92.6,240.9 90.7,241.6 90.6,241.6 90.6,241.6 
		86.8,241.1 86.4,243.6 86.4,243.7 86.3,243.8 82.8,246 83.5,252.5 83.5,252.7 83.4,252.8 79.3,255.4 79.8,260.5 79.9,260.6 
		79.8,260.6 78.2,263.9 78.1,264 78,264 75.1,264.2 75,264.2 74.9,264.2 73.6,262.8 70.2,264.8 71.8,267.3 71.9,267.4 71.9,267.5 
		70.4,272.6 73,276.3 79.4,277 80.1,275.1 80.2,275 80.3,275 82.5,275.2 82.7,275.2 82.7,275.4 83.4,278.6 85.9,279 88.1,277.6 
		88.2,277.5 88.3,277.6 96,279.2 96.1,279.2 96.2,279.3 	"/>
	<polygon class="st10" points="79.2,312.7 83.3,314.2 94.2,313.9 93.3,309.6 96.1,309.1 98.2,297.4 96.3,294.9 93.6,294.2 94,292 
		97.4,288.9 94.4,284.7 95.8,283.9 97.7,283.1 95.8,279.6 88.3,278 86.2,279.3 87.6,282.9 87.7,283 87.6,283.1 86.2,289.9 88,293.1 
		88,293.2 88,293.3 86.2,298.4 86.9,301.6 87,302 86.6,301.9 83.4,301.6 81.8,302.3 81.6,302.4 81.5,302.2 80.3,300.5 79.3,301.7 
		81,305.7 81,305.9 80.9,306 78.6,307.9 78.6,307.9 78.6,307.9 76.5,309 	"/>
	<polygon class="st10" points="70.6,314.4 74.7,314.5 78.6,312.7 76,309 75.8,308.8 76.1,308.7 78.3,307.5 80.4,305.8 78.8,301.8 
		78.7,301.7 78.8,301.5 80.1,299.9 80.3,299.7 80.5,300 81.8,301.8 83.3,301.1 83.4,301.1 83.4,301.1 86.4,301.4 85.7,298.5 
		85.7,298.4 85.7,298.4 87.5,293.2 85.7,290 85.7,289.9 85.7,289.9 87.1,283 85.8,279.4 83.2,279.1 83,279.1 83,278.9 82.3,275.6 
		80.5,275.5 79.8,277.3 79.8,277.5 79.6,277.5 73.2,276.8 73.3,278.8 76.2,279.2 76.4,279.2 76.4,279.4 76.6,281.4 76.6,281.5 
		76.5,281.6 73.3,285.2 73.2,285.3 68,285.3 66.9,287.1 66.9,287.2 66.8,287.3 63.3,287.6 63.2,287.6 63.1,287.5 61.6,285.1 
		61.6,285.1 61.6,281.9 59,280.7 58.9,280.6 58.9,277.2 57,276.4 56.1,278.1 56,278.2 55.8,278.2 53,277.1 51.5,278.9 53.2,281.1 
		55.1,280.8 55.2,280.8 55.3,280.9 56.5,282.6 59,283.3 59.1,283.4 59.2,283.5 60.2,286.4 62.8,290.7 62.8,290.8 62.8,290.9 
		62.1,295.1 64.8,299.9 64.8,300 64.8,300 65.7,303.8 65.7,303.8 65.7,303.9 65.5,307.8 69.6,311.9 69.7,311.9 69.7,311.9 	"/>
	<path class="st10" d="M25.3,285.2l-0.2-3.1l0,0l0-0.2l0-0.2l0.2,0l0.2,0l3.2-0.3v-1.9h0v-0.2l0.1-0.1l0.1-0.1l0,0l3.6-2.7l-2.3-1.4
		h0l0,0l0,0l0,0l0,0v0l-2.9-3.4l0,0l-0.1-0.1l-0.1-0.1l0-0.1l0-0.1l0.4-2.7l0,0l0-0.3l0-0.3l0.3,0.1l0.3,0.1l2.5,0.9l0,0l0.1,0
		l0.1,0l0,0.1l0,0.1l0,0l2,3.2h2.8h0.5l0,0.2l0,0.2l0.2,2.9l2,1.7l0.1,0.1l0.1,0.1l0,0.1l0,0.1l-0.2,4l0,0.1l0,0.1l0,0.1l0,0.1
		l-2.9,3.8l-0.4,0.5l-0.4,0.5l-0.1-0.6l-0.1-0.6l-0.4-3.3l-4.5,5l-0.1,0.1l-0.1,0.1l-0.2-0.1l-0.2-0.1l-3.4-1.6l-0.1-0.1l-0.1-0.1
		l0-0.1L25.3,285.2L25.3,285.2L25.3,285.2z M20.4,256.5l0.3,4.6l-1.4,1.7l0.7,2l2.1,1.6l-0.1,3.3l1.2,5.2l-0.4,4.8l-0.9,8l1,1.4
		l2.1-0.9l1.4,2.3l6.2-2.2l0.2-0.1l0.1,0.1l1.9,2.6l3.2,0.3l2.3-4.6l0-0.1l0.1,0l2.4-1l-0.9-1.4l-0.1-0.1l0.1-0.1l1.4-2.5l-1.5-1.3
		l-0.2-0.2l0.2-0.2l1.8-1.8l0.2-1.5l0-0.1l0.1-0.1l2-0.9l0.2-0.1l0.1,0.2l1.3,2.3l1.7-1.4l0.2-3l0,0l0,0l0.7-1.3l-3-3.7l-0.1-0.1
		l0.1-0.1l2.3-4.4l-2.9-3.6h-2.8l-0.1-0.1l-1.6-3.1l-4.8-4.3l-0.7,6.3l-2.6-1.3l-5,0.3l-1.8,2.4l-3.7-6.1L20.4,256.5L20.4,256.5
		L20.4,256.5z"/>
	<polygon class="st10" points="25.6,282.1 25.8,285.2 29.2,286.8 34.1,281.4 34.5,281 34.5,281.6 35,285.4 37.9,281.6 38.1,277.6 
		36,275.8 35.9,275.8 35.9,275.7 35.7,272.7 32.6,272.7 32.6,272.6 30.5,269.2 27.9,268.3 27.9,268.3 27.6,271.1 27.6,271.1 
		30.5,274.5 30.5,274.5 30.5,274.5 33.1,276.1 33.4,276.3 33.1,276.5 29.2,279.4 29.2,279.4 29.2,281.8 29,281.8 	"/>
	<polygon class="st11" points="18.4,252.5 21.2,249.3 14.8,240.9 18.6,230.3 15.9,228.1 13.6,229.7 4.3,223.4 3.2,225.3 3.5,232.8 
		0,236.5 0.9,241.7 7,241.3 13.8,249.8 	"/>
</g>
<g>
	<polygon class="st12" points="55.3,247 54,249.5 56.8,253.4 60.4,252.1 62.9,247.5 65,247.2 66.6,244.8 70.3,244.9 70.6,238.9 
		65.5,229.4 62.9,230 60.7,231.4 60.9,233.1 59.9,236.2 57.5,237.2 55.9,239.9 55.6,243.2 55.3,247 	"/>
	<path class="st12" d="M42.9,251.8l3.5-3.6l7.4,0.9l1.1-2.3l0.7-7.1l1.7-2.9l2.4-0.9l0.9-2.8l-0.2-1.6l-1.9-0.5l-2.1,0.7
		c-2.2-0.2-2-0.1-4.1-0.7l-2.6,0.5l-1.5,0.8l-0.3,1.8l-2.5,1.2l-2-1l-1.9,1.3l-1.7,3.2l-0.9,4.5h-2.5l-0.7,2.5L42.9,251.8
		L42.9,251.8z"/>
	<polygon class="st12" points="35.1,245.7 35.9,242.9 38.3,242.9 39.1,238.8 40.7,235.8 37.5,235.4 38.7,232.1 39.4,228.3 
		37.3,224.5 34.6,222.5 32.1,224.1 31.8,227 29.4,228.1 29,225.2 26.7,227.4 26.1,230.6 24,233.2 23,234.5 26,234.5 26.4,237 
		29.6,238.6 31.4,243.5 33.3,245.3 	"/>
	<path class="st12" d="M22.6,234.2l3-3.8l0.7-3.3l1.6-1.5l-0.9-3.5l-1.2-4.5l-2.3-2.7l-2.4,3.5l-1.4-2.3l-1.4,2.3
		c-0.7-0.2-1.4-0.4-2.1-0.6l-3-2.4L7.6,212v2.3l-2.3-0.5L5.2,218l5.8,3.4l-1,1l3.1,0.5c2.8,1.9,5.5,3.8,8.2,5.7l-0.5,2.1l1.1,0.4
		C22,231.1,22.6,234.2,22.6,234.2z"/>
</g>
<g>
	<polygon class="st13" points="70.1,236.8 71.1,238.9 71,243.7 74.3,245.5 74.3,245.5 76.7,247 78.9,245.5 79,245.4 79.1,245.4 
		82.4,245.6 86,243.4 86.4,240.8 86.4,240.5 86.6,240.5 90.6,241.1 92.7,240.4 92.9,240.4 93,240.5 94.5,243.7 98,244.9 98.8,244.2 
		99.1,240.3 96.8,238.6 96.7,238.5 96.7,238.4 96.5,235.9 95.1,234.5 92.9,232.9 92.8,232.9 92.8,232.7 93.1,228.9 88.7,225.5 
		88.6,225.4 88.6,225.3 88.2,222.7 86.5,221.9 86.4,221.9 86.4,220.1 85.7,218.9 83.2,218.8 82.8,219.8 82.7,219.9 82.6,219.9 
		81.6,220.1 81.5,220.1 81.4,220 80.7,219.2 79.6,219.2 78,220.7 78,223.5 78,223.6 77,224.9 77.8,225.5 77.9,225.6 77.9,225.7 
		78,227.1 78,227.3 77.8,227.3 76,227.2 75.2,228.5 75.7,230.9 75.7,231 75.7,231.1 	"/>
	<polygon class="st13" points="61.5,210.4 59.7,212.8 58.7,214.2 59.1,216.2 61.1,217.1 60.8,220.1 65.8,223.2 65.9,229 69.8,236.4 
		75.2,230.9 74.7,228.5 74.7,228.4 74.8,228.3 75.6,226.9 75.7,226.7 75.8,226.7 77.5,226.8 77.4,225.8 76.5,225.1 76.3,225 
		76.5,224.8 77.5,223.3 77.5,220.6 73.9,217 70.4,216.2 70.3,216.2 70.3,216.2 67.7,214.5 67.7,214.4 67.6,214.3 67,212.2 65.7,212 
		64.4,212.7 64.3,212.8 64.2,212.7 	"/>
	<polygon class="st13" points="65,197.7 62.8,198.7 61.7,200.8 60.2,201.2 60,203.8 62.3,205.1 61.7,209.9 64.4,212.2 65.6,211.5 
		65.6,211.5 65.7,211.5 67.2,211.8 67.4,211.8 67.4,211.9 68.1,214.1 70.5,215.7 74.1,216.5 74.2,216.5 74.2,216.6 77.8,220.2 
		79.4,218.8 79.4,218.7 80.9,218.7 81,218.8 81.7,219.6 82.4,219.5 82.8,218.5 81.2,216.4 81.2,216.3 81.2,216.2 81,214.1 
		79.3,213.6 79.2,213.5 79.1,213.4 78.6,212.4 78.6,212.3 78.6,210.5 77.8,209.4 77.8,209.4 77.8,205.5 72.1,198 	"/>
	<polygon class="st13" points="73,180.3 69.4,180 66.8,177.5 67.1,175.2 64.6,174.7 63.2,178.2 58,182.6 58.4,185.5 61.1,185.4 
		63.2,187.1 64,190.7 66.3,190.4 69.1,191 69.1,192.8 65.6,197.3 72.1,197.5 80.2,191.6 79.5,190.6 79.5,190.5 79.5,189.1 79.6,189 
		80.5,188 80.5,188 80.6,188 81.9,187.2 81.8,186.1 80.1,186 79.3,186.7 79.1,186.8 79,186.7 77.6,185.9 77.5,185.9 77.5,185.8 
		76.6,184.1 76.5,184 76.5,184 76.5,182.4 76.5,182.3 76.5,182.3 77.3,180.8 73.5,180.6 73.4,180.6 73.4,180.5 	"/>
	<polygon class="st13" points="84.4,158.2 83.8,159.2 79.5,161.7 77.3,165.3 74.9,170.1 74.7,174 75.3,176.3 73.6,178.4 73.5,180.1 
		73.6,180.1 77.7,180.4 79.4,179.6 79.4,179.6 79.5,179.6 82.7,179.7 84.5,178 84.6,178 84.7,178 87.1,178.1 87.2,178.1 87.3,178.3 
		88.3,181.7 89.2,181.2 89.3,181.2 89.3,181.2 91.1,181.5 91.2,181.5 91.3,181.6 92.2,182.8 96.8,182.4 99.6,180.6 102.7,176.1 
		102.8,175.1 100.7,172.5 100.6,172.4 100.6,172.4 100.3,170 95.1,169.1 95,169.1 95,169 92.5,167.2 92.4,167.2 92.4,167.1 
		89,160.8 89,160.8 89,160.8 88,158.3 87,157.7 84.9,158.3 84.9,158.3 84.8,158.3 	"/>
	<polygon class="st13" points="72.5,197.8 78.2,205.2 78.3,205.3 78.3,209.2 79.1,210.2 79.1,210.3 79.1,212.2 79.5,213.2 
		81.3,213.7 83.9,213.8 84.7,212.4 84.7,212.3 84.8,212.3 89.8,208.3 90.3,204.2 88.1,202.2 88.1,202.2 88.1,202.1 87,199.7 
		86.9,199.7 86.9,199.6 87.1,195.5 80.5,192 	"/>
	<polygon class="st13" points="90,208.7 85.1,212.7 84.2,214.2 84.2,214.3 84,214.3 81.5,214.2 81.6,216.1 83.2,218.3 85.9,218.4 
		86,218.4 86.1,218.6 86.8,219.9 86.9,220 86.9,221.6 88.5,222.4 88.6,222.4 88.6,222.5 89.1,225.2 93.3,228.5 95.4,227.5 96,226.2 
		95.6,224.1 95,222.9 95,222.8 95.1,222.7 95.9,221.1 96,221 96.1,221 99.7,219.3 101.9,217.3 101.9,214.9 101.4,213.3 99.5,211.8 
		99.4,211.8 99.4,211.7 98.8,210 96.9,209.8 94.1,211.2 94,211.2 93.9,211.2 91.9,211 91.8,211 91.7,210.9 	"/>
	<polygon class="st13" points="102.4,217.1 102.3,217.4 102.3,217.5 102.3,217.6 100,219.7 100,219.7 100,219.7 96.3,221.4 
		95.5,222.8 96.1,224 96.1,224 96.1,224 96.5,226.2 96.5,226.3 96.4,226.4 95.8,227.8 95.8,227.9 95.7,227.9 93.5,228.9 93.3,232.6 
		95.4,234.2 95.4,234.2 95.4,234.2 96.9,235.6 97,235.7 97,235.8 97.2,238.3 99.4,239.9 102.6,239.4 109,236.1 109.8,234.9 
		109.9,229.6 109.9,229.6 109.9,229.6 110.5,225.9 110.5,225.9 110.5,225.8 113.4,222.5 111.1,220 109.8,220.9 109.7,220.9 
		109.7,220.9 108.5,221.2 108.4,221.3 108.4,221.2 106.6,220.2 106.5,220.1 106.5,220.1 104.9,217.2 	"/>
	<polygon class="st13" points="87.6,195.5 87.4,199.6 88.5,201.9 90.7,203.9 90.8,204 90.8,204.1 90.2,208.3 92,210.5 93.9,210.7 
		96.8,209.3 96.9,209.3 96.9,209.3 98.8,209.5 98.9,208.4 98.9,208.4 99,208.3 100.3,206.5 100.3,206.5 100.3,206.5 102.9,203.7 
		102.9,201.9 103,201.8 104.5,200.2 104.2,197 102.3,195.9 102.3,195.8 102.2,195.8 101.4,194.1 97.4,194.3 96.5,195.4 96.3,195.6 
		96.2,195.5 92.7,193.4 91.7,193.1 	"/>
	<polygon class="st13" points="103.2,204 100.7,206.8 99.4,208.6 99.2,209.7 99.8,211.5 101.8,213 101.8,213 101.9,213.1 
		102.4,214.8 102.4,214.9 102.4,214.9 102.4,216.6 105.1,216.7 105.2,216.7 105.3,216.8 106.9,219.8 108.5,220.7 109.5,220.4 
		111,219.5 111.2,219.4 111.3,219.5 113.8,222.3 115.5,222.9 117,222.8 122,218.3 122,218.3 122,218.3 124.7,216.5 124.1,214.8 
		124.1,214.8 123,212 117.9,203.4 114.8,203.2 113.7,204.2 113.6,204.3 113.4,204.2 112.2,203.4 112.2,203.4 110.9,202.5 110.3,203 
		110.3,203.1 110.2,203.1 108.1,203.6 108,203.7 107.9,203.6 106.7,203.1 105.8,203.9 105.8,203.9 105.7,203.9 	"/>
	<polygon class="st13" points="101.4,193.6 102.2,192.7 103.4,190.9 103.4,186.9 101.5,185.9 101.5,185.9 101.4,185.8 100,183.5 
		100,183.5 100,183.5 99.6,181.2 97,182.8 97,182.8 96.9,182.8 92.1,183.3 91.9,183.3 91.8,183.2 90.9,181.9 89.4,181.7 88.3,182.3 
		88,182.5 87.9,182.2 86.9,178.6 84.7,178.5 83,180.1 82.9,180.2 82.8,180.2 79.5,180.1 77.9,180.8 77,182.4 77,183.9 77.9,185.5 
		79.1,186.2 79.9,185.6 80,185.5 80.1,185.5 82,185.6 82.2,185.7 82.2,185.8 82.4,187.3 82.5,187.4 82.3,187.5 80.8,188.4 80,189.3 
		80,190.4 80.7,191.5 87.3,195 91.6,192.6 91.7,192.5 91.8,192.6 92.9,192.9 92.9,192.9 92.9,192.9 96.2,194.9 97.1,193.9 
		97.2,193.8 97.3,193.8 	"/>
	<polygon class="st13" points="100,180.8 100.4,183.3 101.8,185.5 103.7,186.6 103.9,186.6 103.9,191.1 103.8,191.2 102.6,192.9 
		102.6,192.9 101.8,193.9 102.6,195.5 104.6,196.7 104.7,196.8 104.7,196.9 105,200.3 105,200.4 104.9,200.5 103.4,202.1 
		103.4,203.6 105.6,203.4 106.5,202.6 106.6,202.5 106.7,202.6 108,203.1 110.1,202.6 110.8,202.1 110.9,201.9 111.1,202 112.4,203 
		112.4,203 113.5,203.7 114.5,202.8 114.6,202.7 114.7,202.7 117.9,202.9 119.1,201 120,198.7 119.2,198 119.2,198 119.2,197.9 
		117.7,196.1 117.7,196.1 117.7,196 116.5,192.5 116.5,192.4 116.5,192.3 117.3,189.8 117.4,189.7 117.4,189.7 120.1,186.6 
		120.1,186.6 120.1,186.6 121.7,185.1 122.1,183.2 120,180.7 115,180.8 114.9,180.8 114.8,180.7 109.3,177.2 109.2,177.1 109.2,177 
		109.3,174.9 108.7,174.5 108.1,175.1 108,175.2 108,175.2 103.2,175.8 103.2,176.3 103.2,176.3 103.1,176.4 	"/>
	<polygon class="st13" points="121.7,185.7 120.4,186.9 117.8,190 117,192.4 118.1,195.8 119.5,197.6 120.4,198.4 120.5,198.5 
		120.5,198.7 119.6,201.2 119.6,201.3 119.6,201.3 118.3,203.1 123.3,211.6 126.8,209.5 126.9,209.4 126.9,209.4 131.4,209.3 
		136.2,206.4 135.2,203.5 130.5,197.4 128.1,196.4 128,196.4 128,196.3 126.2,194.4 126.1,194.2 126.2,194.1 127.5,192.3 
		128.1,190.1 127,189 124.6,190.9 124.4,191.1 124.2,190.9 122,188.5 121.9,188.4 121.9,188.3 	"/>
	<polygon class="st13" points="128.2,189.5 128.5,189.8 128.6,189.9 128.6,190 128,192.5 128,192.5 127.9,192.5 126.7,194.2 
		128.3,196 130.7,197 130.8,197 130.8,197.1 135.6,203.2 135.6,203.3 135.7,203.3 136.7,206.2 138.2,205.9 139.4,204.2 139.5,204.1 
		139.6,204.1 142.5,203.9 142.6,203.9 142.7,204 143.8,205 145.6,204 146.2,197.7 143.3,196.1 143.2,196 143.2,195.9 143,193.3 
		141.7,192.1 139.6,192.8 139.5,192.8 139.4,192.8 132.4,189 	"/>
	<polygon class="st13" points="135.3,190.1 139.5,192.3 141.7,191.6 141.8,191.5 141.9,191.6 143.4,193 143.5,193 143.5,193.1 
		143.6,195.7 146.5,197.3 146.7,197.4 146.7,197.5 146.1,203.9 154.8,204 155.8,203.3 155.9,203.2 156,203.2 158.8,203.3 159,203.3 
		159,203.5 159.8,205.7 162.1,206.7 162.2,206.7 162.2,206.7 164.2,208.7 167.3,205.5 167.4,205.4 167.5,205.4 175.3,205.6 
		175.4,200.7 175.4,200.6 175.5,200.5 177,198.9 175.3,197.2 171.2,198.2 171.1,198.2 171,198.2 164.8,194.6 164.8,194.5 
		164.7,194.5 161,187.6 155.4,184.2 146.8,183.8 143.9,185.8 143.8,185.9 143.7,185.9 140.4,186 139.4,187.6 139.4,187.6 
		139.3,187.6 	"/>
	<polygon class="st13" points="122.4,182.8 126.1,181.2 125.6,179.4 125.6,179.4 125.6,179.3 126.7,173.1 126.8,172.9 127,172.9 
		130.2,173.1 134.2,169.2 133.7,164.5 129.8,164.5 129.7,164.8 129.4,164.5 125,160.6 122.4,160.7 122.3,160.7 122.2,160.7 
		119.1,158.1 119.1,158.1 119,158 118.5,155.7 116.2,154.1 115.3,154.7 114.9,156.8 114.9,157.1 114.7,157 108.9,156.6 108.8,156.5 
		108.8,156.5 106.9,154.8 101.3,153.3 101.2,153.3 101.2,153.3 98.2,151.2 98.2,151.2 98.2,151.1 96.6,149.6 95.1,151.1 94.2,154.8 
		94.2,154.8 94.2,154.9 92.5,157.4 92.5,157.5 92.4,157.5 88.5,158.3 89.5,160.6 92.8,166.8 95.2,168.6 100.6,169.6 100.8,169.6 
		100.8,169.8 101.1,172.2 103.3,174.8 103.3,174.9 103.3,175 103.3,175.3 107.8,174.7 108.4,174.1 108.6,174 108.7,174 109.7,174.5 
		109.8,174.6 109.8,174.7 109.7,176.9 115,180.3 120.1,180.2 120.2,180.2 120.3,180.3 	"/>
	<polygon class="st13" points="146.3,183.5 143.2,180.5 143.1,180.4 143.1,180.2 144.3,175.8 142,172.9 140,173 139.9,173 
		139.8,173 134.5,169.6 130.5,173.5 130.4,173.6 130.3,173.6 127.2,173.4 126.1,179.4 126.6,181.2 126.7,181.4 126.5,181.5 
		122.6,183.3 122.2,185.2 122.4,188.2 124.4,190.4 126.8,188.4 127,188.3 127.2,188.5 127.8,189.1 132.4,188.5 132.5,188.5 
		132.5,188.6 134.8,189.8 139,187.2 140,185.6 140.1,185.5 140.2,185.5 143.6,185.4 	"/>
	<polygon class="st13" points="57.5,182.4 55.4,180.5 51.8,178.7 48.5,179.3 45.4,180.9 45.2,178.8 43.9,176.7 41.9,176.4 
		41.9,175.1 40.9,174.5 42.4,172.5 40.5,170.9 40,168 37.1,165.7 35.5,162.8 35.8,159.5 33.7,153.9 32,150.1 28.1,146.1 25.9,144.3 
		23.7,143.7 22.7,140.7 26.3,138.8 27.4,134.8 30.5,135 33.7,137.1 37.6,133.2 40.8,130.9 43.9,129.2 46.1,132.2 48,135 51.7,134.8 
		52.5,138.3 57,136.3 59.7,134.9 64.9,137.8 66.3,137.8 66.9,135.2 71.5,135.6 73.4,139.2 77.3,138.5 80.9,139.9 81.1,144.6 
		82.9,146.9 80.8,149.6 81.5,152.3 84.6,153.1 85.1,155.9 83.5,158.9 79.2,161.3 76.9,165 74.5,169.9 74.2,174.1 74.8,176.2 
		73.2,178.2 73.1,179.8 69.7,179.5 67.4,177.3 67.7,174.8 64.3,174.1 62.8,177.9 	"/>
</g>
</svg>
